<?xml version="1.0" standalone="no"?> <!DOCTYPE svg PUBLIC "-//W3C//DTD SVG 1.0//EN" "http://www.w3.org/TR/2001/REC-SVG-20010904/DTD/svg10.dtd" > <svg xmlns="http://www.w3.org/2000/svg" width="100%" height="100%">
<defs >
<font id="AVANGMB" horiz-adv-x="455" ><font-face
    font-family="AvantGardeMdITCTT"
    units-per-em="1000"
    panose-1="0 0 4 0 0 0 0 0 0 0"
    ascent="942"
    descent="-250"
    alphabetic="0" />
<missing-glyph horiz-adv-x="500" d="M63 0V750H438V0H63ZM125 63H375V688H125V63Z" />
<glyph unicode=" " glyph-name="space" horiz-adv-x="250" />
<glyph unicode="!" glyph-name="exclam" horiz-adv-x="295" d="M70 667H225V220H70V667ZM70 153H225V0H70V153Z" />
<glyph unicode="&quot;" glyph-name="quotedbl" horiz-adv-x="408" d="M182 667L158 399H65L41 667H182ZM367 667L343 399H250L226 667H367Z" />
<glyph unicode="#" glyph-name="numbersign" horiz-adv-x="600" d="M473 297H575L557 183H455L426 0H296L325 183H238L209 0H80L110 183H8L25 297H127L141 383H40L57 497H158L186 667H314L287 497H374L401 667H531L504 497H604L587 383H486L473 297ZM343 297L356
383H269L256 297H343Z" />
<glyph unicode="$" glyph-name="dollar" horiz-adv-x="550" d="M215 731H337V640Q393 626 426 584Q463 536 463 478V469H323Q319 526 274 526Q252 526 239 512T225 475Q225 426 315 394L346 383Q408 361 443 314T479 209Q479 146 441 97T337 27V-68H215V23Q142
38 106 84Q66 134 66 192V202H220Q226 138 273 138Q295 138 310 153T325 192Q325 241 242 271L212 282Q71 334 71 458Q71 526 109 573T215 640V731Z" />
<glyph unicode="%" glyph-name="percent" horiz-adv-x="800" d="M194 357Q123 357 77 402T30 517Q30 588 76 634T193 680Q263 680 310 634T357 519Q357 449 311 403T194 357ZM607 -13Q536 -13 490 32T443 146Q443 217 489 263T607 310Q677 310 723 264T770 148Q770
79 724 33T607 -13ZM207 0L487 667H593L313 0H207ZM194 580Q169 580 152 563T134 519Q134 493 151 475T194 457Q219 457 236 475T253 519Q253 544 236 562T194 580ZM607 210Q582 210 565 192T547 149Q547 122 564 104T607 86Q632 86 649 104T666 148Q666 174 649
192T607 210Z" />
<glyph unicode="&amp;" glyph-name="ampersand" horiz-adv-x="660" d="M437 284L486 393H643L592 269Q572 220 542 180L633 87L531 -13L452 68Q402 24 354 6T253 -13Q159 -13 95 42T30 180Q30 268 112 333Q125 343 153 364Q90 427 90 508Q90 581 143 630T275 680Q350
680 400 633T451 516Q451 429 358 363L437 284ZM352 166L245 274Q194 232 194 196Q194 167 215 149T271 130Q319 130 352 166ZM235 515Q235 484 273 443Q315 484 315 517Q315 560 276 560Q259 560 247 547T235 515Z" />
<glyph unicode="&apos;" glyph-name="quotesingle" horiz-adv-x="223" d="M182 667L158 399H65L41 667H182Z" />
<glyph unicode="(" glyph-name="parenleft" horiz-adv-x="372" d="M187 249Q187 159 231 79T345 -38V-187Q269 -158 216 -119Q128 -54 79 43T30 250Q30 359 79 456T216 619Q269 658 345 687V538Q275 500 231 420T187 249Z" />
<glyph unicode=")" glyph-name="parenright" horiz-adv-x="372" d="M185 251Q185 341 141 421T27 538V687Q103 658 156 619Q244 554 293 457T342 250Q342 141 293 44T156 -119Q103 -158 27 -187V-38Q97 -1 141 79T185 251Z" />
<glyph unicode="*" glyph-name="asterisk" horiz-adv-x="550" d="M224 541L221 667H329L323 541L439 584L474 485L355 449L430 350L346 286L273 390L201 286L117 350L195 449L76 485L109 584L224 541Z" />
<glyph unicode="+" glyph-name="plus" horiz-adv-x="500" d="M33 281V398H187V552H313V398H467V281H313V127H187V281H33Z" />
<glyph unicode="," glyph-name="comma" horiz-adv-x="262" d="M53 153H209V-36Q209 -85 184 -115T117 -145H53V-65H84Q123 -65 123 -31V0H53V153Z" />
<glyph unicode="-" glyph-name="hyphen" horiz-adv-x="253" d="M0 320H253V193H0V320Z" />
<glyph unicode="." glyph-name="period" horiz-adv-x="262" d="M53 153H209V0H53V153Z" />
<glyph unicode="/" glyph-name="slash" horiz-adv-x="422" d="M-19 -167L242 667H389L128 -167H-19Z" />
<glyph unicode="0" glyph-name="zero" horiz-adv-x="550" d="M50 126Q26 177 26 236V430Q26 553 117 623Q191 680 277 680Q347 680 412 639T503 537Q524 488 524 430V236Q524 130 453 59T278 -13Q208 -13 143 26T50 126ZM275 137Q354 137 354 236V431Q354 530
275 530Q196 530 196 431V236Q196 137 275 137Z" />
<glyph unicode="1" glyph-name="one" horiz-adv-x="550" d="M104 667H383V0H213V523H104V667Z" />
<glyph unicode="2" glyph-name="two" horiz-adv-x="550" d="M404 257Q365 214 285 143H511V0H41V133L67 149Q150 200 213 261Q243 290 275 331Q337 410 337 465Q337 494 320 512T274 530Q203 530 197 424H35Q37 483 45 514T74 577Q142 680 281 680Q378 680 442
625T507 485Q507 373 404 257Z" />
<glyph unicode="3" glyph-name="three" horiz-adv-x="547" d="M42 112Q28 147 23 198H195Q210 137 271 137Q304 137 324 155T345 203Q345 270 255 270H195V395H223Q307 395 307 472Q307 530 260 530Q211 530 208 473H40Q42 566 104 623T268 680Q357 680 417 628T477
498Q477 405 389 357Q515 316 515 196Q515 110 443 49T268 -13Q188 -13 127 21T42 112Z" />
<glyph unicode="4" glyph-name="four" horiz-adv-x="550" d="M303 0V117H10V242L308 667H467V251H540V117H467V0H303ZM180 251H314V460L180 251Z" />
<glyph unicode="5" glyph-name="five" horiz-adv-x="550" d="M178 255L41 289L98 667H467V523H229L214 432Q253 453 304 453Q399 453 463 389T527 229Q527 126 454 57T270 -13Q172 -13 103 39T17 179H188Q220 137 267 137Q303 137 330 163T357 225Q357 263 331
288T265 313Q202 313 178 255Z" />
<glyph unicode="6" glyph-name="six" horiz-adv-x="550" d="M241 667H438L291 464Q318 468 333 468Q419 468 477 403T536 242Q536 132 462 60T276 -13Q166 -13 90 61T13 244Q13 332 75 423L241 667ZM272 318Q233 318 207 293T181 229Q181 190 208 164T274 137Q312
137 338 163T365 227Q365 265 339 291T272 318Z" />
<glyph unicode="7" glyph-name="seven" horiz-adv-x="550" d="M61 523V667H496V536L261 0H74L320 523H61Z" />
<glyph unicode="8" glyph-name="eight" horiz-adv-x="550" d="M478 494Q478 419 413 367Q518 322 518 201Q518 112 448 50T276 -13Q175 -13 104 50T32 201Q32 322 136 367Q71 419 71 492Q71 573 129 626T275 680Q362 680 420 627T478 494ZM276 542Q250 542 232
525T213 481V478Q213 453 230 436T274 419Q300 419 318 437T336 482Q336 507 319 524T276 542ZM275 289Q244 289 223 268T202 214Q202 180 223 159T277 137Q306 137 327 159T348 213Q348 245 327 267T275 289Z" />
<glyph unicode="9" glyph-name="nine" horiz-adv-x="550" d="M320 0H126L276 207Q253 200 231 200Q138 200 76 266T14 432Q14 538 88 609T273 680Q388 680 462 607T537 419Q537 337 490 264L320 0ZM274 530Q239 530 213 506T184 447Q184 445 183 442Q183 405 210
378T275 351Q313 351 339 377T366 441Q366 478 339 504T274 530Z" />
<glyph unicode=":" glyph-name="colon" horiz-adv-x="262" d="M53 153H209V0H53V153ZM53 500H209V347H53V500Z" />
<glyph unicode=";" glyph-name="semicolon" horiz-adv-x="262" d="M53 153H209V-36Q209 -85 184 -115T117 -145H53V-65H84Q123 -65 123 -31V0H53V153ZM53 500H209V347H53V500Z" />
<glyph unicode="&lt;" glyph-name="less" horiz-adv-x="500" d="M33 387L467 607V481L167 333L466 185L467 61L33 281V387Z" />
<glyph unicode="=" glyph-name="equal" horiz-adv-x="500" d="M33 371V481H467V371H33ZM33 199V309H467V199H33Z" />
<glyph unicode="&gt;" glyph-name="greater" horiz-adv-x="500" d="M467 280L33 61V186L333 334L34 482L33 607L467 387V280Z" />
<glyph unicode="?" glyph-name="question" horiz-adv-x="496" d="M241 526Q208 526 194 506T179 439H14Q13 447 13 456Q13 554 80 617T250 680Q341 680 403 625T466 489Q466 439 440 396Q421 364 364 312Q324 275 311 256T295 212H139Q140 254 158 285T232 371Q293
430 293 470Q293 526 241 526ZM139 153H295V0H139V153Z" />
<glyph unicode="@" glyph-name="at" horiz-adv-x="733" d="M466 453L473 492L560 491L523 301Q517 270 517 257Q517 225 540 225Q564 225 586 257Q623 311 623 384Q623 479 558 539T389 600Q274 600 196 521T118 326Q118 242 162 174T277 82Q325 66 389 66Q484
66 571 97L591 19Q503 -12 387 -12Q233 -12 138 78Q33 177 33 328Q33 475 135 576T384 678Q520 678 610 595T700 384Q700 293 650 223T536 153Q473 153 458 208Q414 145 334 145Q274 145 234 190T193 302Q193 382 245 442T368 502Q435 502 466 453ZM444 341V345Q444
374 426 392T380 411Q345 411 319 380T292 306Q292 274 310 254T358 234Q393 234 418 266T444 341Z" />
<glyph unicode="A" glyph-name="A" horiz-adv-x="660" d="M479 0L447 97H215L180 0H-3L264 667H399L664 0H479ZM332 460L262 232H401L332 460Z" />
<glyph unicode="B" glyph-name="B" horiz-adv-x="577" d="M268 0H57V667H262Q345 667 385 659T452 630Q515 580 515 492Q515 402 438 357Q548 320 548 202Q548 115 487 58Q449 23 406 12T268 0ZM220 517V413H280Q352 413 352 466Q352 517 280 517H220ZM220 271V150H300Q385
150 385 213Q385 271 300 271H220Z" />
<glyph unicode="C" glyph-name="C" horiz-adv-x="736" d="M378 137Q485 137 539 249H717Q689 131 596 59T380 -13Q233 -13 131 88T29 335Q29 480 130 580T378 680Q572 680 674 519Q709 464 717 413H539Q519 467 476 498T377 530Q301 530 250 474T199 335Q199 251
250 194T378 137Z" />
<glyph unicode="D" glyph-name="D" horiz-adv-x="662" d="M319 0H57V667H281Q414 667 491 619Q538 590 572 542Q633 457 633 336Q633 184 547 92T319 0ZM227 517V150H300Q463 150 463 331Q463 420 421 468T301 517H227Z" />
<glyph unicode="E" glyph-name="E" horiz-adv-x="469" d="M427 0H57V667H427V517H220V414H421V264H220V150H427V0Z" />
<glyph unicode="F" glyph-name="F" horiz-adv-x="444" d="M220 0H57V667H421V517H220V404H414V254H220V0Z" />
<glyph unicode="G" glyph-name="G" horiz-adv-x="767" d="M342 243V379H737Q739 347 739 345Q739 192 637 90T382 -13Q234 -13 132 88T29 336Q29 482 132 581T386 680Q500 680 595 613T718 443H527Q480 530 381 530Q303 530 251 477T199 343Q199 250 252 193T393
136Q449 136 488 164T540 243H342Z" />
<glyph unicode="H" glyph-name="H" horiz-adv-x="671" d="M227 0H57V667H227V417H445V667H615V0H445V267H227V0Z" />
<glyph unicode="I" glyph-name="I" horiz-adv-x="283" d="M227 0H57V667H227V0Z" />
<glyph unicode="J" glyph-name="J" horiz-adv-x="504" d="M284 221V667H454V263Q454 196 449 164Q441 109 413 74Q345 -13 224 -13Q152 -13 95 22T16 116Q0 160 0 214H181Q185 137 233 137Q284 137 284 221Z" />
<glyph unicode="K" glyph-name="K" horiz-adv-x="603" d="M227 0H57V667H227V366L417 667H596L374 334L610 0H410L227 288V0Z" />
<glyph unicode="L" glyph-name="L" horiz-adv-x="437" d="M424 0H57V667H227V150H424V0Z" />
<glyph unicode="M" glyph-name="M" horiz-adv-x="817" d="M213 0H57V667H276L408 228L540 667H760V0H603L609 501L465 0H352L208 501L213 0Z" />
<glyph unicode="N" glyph-name="N" horiz-adv-x="676" d="M220 0H57V667H203L463 247L456 667H619V0H471L213 405L220 0Z" />
<glyph unicode="O" glyph-name="O" horiz-adv-x="761" d="M379 -13Q231 -13 130 86T29 332Q29 480 129 580T379 680Q528 680 630 580T733 333Q733 187 631 87T379 -13ZM381 530Q303 530 251 474T199 335Q199 250 251 194T383 137Q459 137 511 193T563 332Q563
416 511 473T381 530Z" />
<glyph unicode="P" glyph-name="P" horiz-adv-x="578" d="M220 0H57V667H275Q420 667 480 617Q558 552 558 440Q558 332 488 267Q426 209 293 209H220V0ZM220 517V360H289Q395 360 395 438Q395 517 282 517H220Z" />
<glyph unicode="Q" glyph-name="Q" horiz-adv-x="765" d="M753 122Q755 122 759 123Q764 123 767 123V-12Q725 -14 725 -14Q619 -14 569 39Q483 -13 388 -13Q236 -13 133 86T29 330Q29 477 130 578T379 680Q530 680 633 579T737 330Q737 232 680 146Q706 122 753
122ZM452 328Q501 294 544 241Q567 297 567 340Q567 423 514 476T379 530Q309 530 261 485T200 362Q252 384 295 384Q372 384 452 328ZM377 137Q412 137 448 162Q404 219 352 243Q315 260 277 260Q250 260 217 249Q238 199 282 168T377 137Z" />
<glyph unicode="R" glyph-name="R" horiz-adv-x="586" d="M220 0H57V667H268Q353 667 396 657T473 619Q555 551 555 436Q555 353 510 297T389 227L570 0H375L220 216V0ZM220 517V332H280Q391 332 391 426Q391 517 282 517H220Z" />
<glyph unicode="S" glyph-name="S" horiz-adv-x="516" d="M439 604Q463 575 472 549T484 473H315Q306 537 254 537Q230 537 213 522T195 486Q195 446 252 420L334 383Q418 345 453 301T489 191Q489 95 428 41T256 -13Q144 -13 79 44T14 198V220H185Q185 179 203
155T254 130Q282 130 301 148T320 194Q320 237 249 266L172 298Q124 319 92 345Q25 399 25 483Q25 566 93 623T259 680Q376 680 439 604Z" />
<glyph unicode="T" glyph-name="T" horiz-adv-x="447" d="M309 0H139V517H7V667H441V517H309V0Z" />
<glyph unicode="U" glyph-name="U" horiz-adv-x="612" d="M50 263V667H220V263Q220 137 307 137Q354 137 373 165T392 263V667H562V263Q562 127 496 59Q426 -13 307 -13Q187 -13 117 58Q79 97 65 140T50 263Z" />
<glyph unicode="V" glyph-name="V" horiz-adv-x="602" d="M213 0L-10 667H166L301 199L436 667H612L388 0H213Z" />
<glyph unicode="W" glyph-name="W" horiz-adv-x="868" d="M179 0L7 667H180L269 233L368 667H499L597 231L688 667H861L684 0H534L433 431L332 0H179Z" />
<glyph unicode="X" glyph-name="X" horiz-adv-x="644" d="M324 476L435 667H627L423 352L654 0H461L317 236L180 0H-10L223 355L17 667H210L324 476Z" />
<glyph unicode="Y" glyph-name="Y" horiz-adv-x="547" d="M359 0H189V243L-10 667H175L274 399L374 667H557L359 243V0Z" />
<glyph unicode="Z" glyph-name="Z" horiz-adv-x="457" d="M437 0H17V112L247 517H17V667H437V529L224 150H437V0Z" />
<glyph unicode="[" glyph-name="bracketleft" horiz-adv-x="372" d="M295 677Q300 678 312 680V533Q259 531 236 503T213 413V30Q213 -32 236 -60T312 -91V-238L297 -235Q205 -217 162 -185T94 -112Q60 -53 60 47V396Q60 480 83 533T160 626Q192 650 215 658T295 677Z" />
<glyph unicode="\" glyph-name="backslash" horiz-adv-x="500" d="M27 750H151L457 -83H334L27 750Z" />
<glyph unicode="]" glyph-name="bracketright" horiz-adv-x="372" d="M77 -235Q72 -235 60 -238V-91Q113 -89 136 -61T159 30V413Q159 475 136 503T60 533V680L75 678Q156 667 212 626Q254 595 278 554Q312 495 312 396V47Q312 -37 289 -91T212 -184Q180 -208
157 -216T77 -235Z" />
<glyph unicode="^" glyph-name="asciicircum" horiz-adv-x="500" d="M250 569L138 336H6L167 670H333L494 336H362L250 569Z" />
<glyph unicode="_" glyph-name="underscore" horiz-adv-x="500" d="M0 -161V-47H500V-161H0Z" />
<glyph unicode="`" glyph-name="grave" horiz-adv-x="500" d="M89 674L149 765L344 617L293 543L89 674Z" />
<glyph unicode="a" glyph-name="a" horiz-adv-x="627" d="M436 500H577V0H436V54Q401 -17 281 -17Q168 -17 98 57T27 250Q27 368 99 443T284 518Q395 518 436 447V500ZM301 377Q248 377 213 341T177 250Q177 196 213 160T302 123Q357 123 392 159T427 251Q427
305 392 341T301 377Z" />
<glyph unicode="b" glyph-name="b" horiz-adv-x="618" d="M192 0H50V667H200V460Q254 517 344 517Q451 517 521 443T591 253Q591 135 520 59T338 -17Q293 -17 262 -2T192 54V0ZM318 377Q265 377 230 341T194 250Q194 195 228 159T316 123Q369 123 405 159T441
250Q441 303 406 340T318 377Z" />
<glyph unicode="c" glyph-name="c" horiz-adv-x="574" d="M296 123Q363 123 406 190H557Q535 98 462 41T295 -17Q183 -17 105 61T27 251Q27 363 103 440T291 517Q389 517 463 459T556 307H405Q375 377 296 377Q244 377 211 341T177 248Q177 193 210 158T296 123Z" />
<glyph unicode="d" glyph-name="d" horiz-adv-x="623" d="M423 667H573V0H431V53Q374 -17 278 -17Q168 -17 98 58T27 251Q27 366 97 441T275 517Q363 517 423 458V667ZM305 377Q249 377 213 342T177 251Q177 195 212 159T303 123Q359 123 395 159T431 252Q431
305 395 341T305 377Z" />
<glyph unicode="e" glyph-name="e" horiz-adv-x="578" d="M374 149Q374 149 381 156H533Q498 75 434 29T290 -17Q180 -17 104 60T27 249Q27 361 103 439T287 517Q399 517 475 439T551 244Q551 226 547 203H172Q177 161 207 136T282 110Q332 110 374 149ZM176 303H401Q393
342 362 366T288 390Q195 390 176 303Z" />
<glyph unicode="f" glyph-name="f" horiz-adv-x="294" d="M213 0H63V387H8V500H63V526Q63 605 110 642T254 680H277V567H259Q213 567 213 520V500H277V387H213V0Z" />
<glyph unicode="g" glyph-name="g" horiz-adv-x="620" d="M428 500H570V60Q570 -11 566 -37Q557 -89 526 -125Q441 -223 287 -223Q184 -223 116 -175T37 -47H210Q231 -96 298 -96Q356 -96 387 -61T419 39V55Q403 24 361 4T270 -17Q168 -17 98 60T27 247Q27 363
99 440T282 517Q377 517 428 454V500ZM299 377Q247 377 212 341T177 252Q177 196 211 160T298 123Q351 123 385 158T420 248Q420 304 386 340T299 377Z" />
<glyph unicode="h" glyph-name="h" horiz-adv-x="560" d="M200 0H50V667H200V455Q237 517 331 517Q416 517 466 463Q498 428 508 377Q513 348 513 279V0H363V273Q363 377 283 377Q200 377 200 277V0Z" />
<glyph unicode="i" glyph-name="i" horiz-adv-x="250" d="M50 500H200V0H50V500ZM50 667H200V553H50V667Z" />
<glyph unicode="j" glyph-name="j" horiz-adv-x="250" d="M50 500H200V11Q200 -98 161 -138Q117 -183 14 -183H-23V-70H-3Q27 -70 38 -54T50 6V500ZM50 667H200V553H50V667Z" />
<glyph unicode="k" glyph-name="k" horiz-adv-x="511" d="M200 0H50V667H200V319L341 500H518L329 281L513 0H343L200 241V0Z" />
<glyph unicode="l" glyph-name="l" horiz-adv-x="250" d="M200 0H50V667H200V0Z" />
<glyph unicode="m" glyph-name="m" horiz-adv-x="864" d="M200 0H50V500H192V447Q237 517 329 517Q425 517 474 428Q529 517 633 517Q710 517 762 467Q801 430 811 377Q817 349 817 273V0H667V266Q667 325 650 351T593 377Q511 377 511 273V0H361V273Q361 377
284 377Q200 377 200 273V0Z" />
<glyph unicode="n" glyph-name="n" horiz-adv-x="560" d="M200 0H50V500H192V447Q241 517 329 517Q411 517 463 466Q492 437 502 406T513 313V0H363V273Q363 377 285 377Q200 377 200 279V0Z" />
<glyph unicode="o" glyph-name="o" horiz-adv-x="595" d="M298 -17Q181 -17 104 58T27 247Q27 364 103 440T297 517Q413 517 490 441T567 250Q567 135 491 59T298 -17ZM298 377Q247 377 212 341T177 251Q177 196 211 160T298 123Q349 123 383 159T417 250Q417
303 383 340T298 377Z" />
<glyph unicode="p" glyph-name="p" horiz-adv-x="623" d="M200 -167H50V500H191V445Q247 517 349 517Q457 517 525 441T594 246Q594 134 524 59T350 -17Q257 -17 200 46V-167ZM318 377Q266 377 230 341T193 252Q193 198 229 161T319 123Q372 123 408 159T444 250Q444
304 408 340T318 377Z" />
<glyph unicode="q" glyph-name="q" horiz-adv-x="623" d="M431 500H573V-167H423V51Q362 -17 269 -17Q165 -17 96 56T27 241Q27 362 98 439T280 517Q378 517 431 445V500ZM302 377Q249 377 213 341T177 249Q177 196 214 160T304 123Q356 123 392 160T429 249Q429
304 393 340T302 377Z" />
<glyph unicode="r" glyph-name="r" horiz-adv-x="323" d="M199 0H50V500H192V447Q232 517 313 517H317V367Q253 366 226 345T199 276V0Z" />
<glyph unicode="s" glyph-name="s" horiz-adv-x="445" d="M223 517Q302 517 351 475T407 360H261Q257 397 218 397Q171 397 171 365Q171 331 248 310T352 275T400 231Q423 198 423 153Q423 80 364 32T215 -17Q131 -17 77 27T15 149H164Q170 103 221 103Q242 103
257 114T273 141Q273 176 215 191L127 214Q81 226 51 265T21 352Q21 421 79 469T223 517Z" />
<glyph unicode="t" glyph-name="t" horiz-adv-x="293" d="M63 667H213V500H285V387H213V0H63V387H-10V500H63V667Z" />
<glyph unicode="u" glyph-name="u" horiz-adv-x="562" d="M362 500H512V0H370V53Q335 -17 238 -17Q147 -17 92 46Q63 79 54 118Q47 146 47 201V500H197V221Q197 123 277 123Q362 123 362 221V500Z" />
<glyph unicode="v" glyph-name="v" horiz-adv-x="483" d="M338 500H493L313 0H170L-10 500H145L241 188L338 500Z" />
<glyph unicode="w" glyph-name="w" horiz-adv-x="753" d="M153 0L0 500H154L230 189L313 500H440L523 189L599 500H753L600 0H461L376 323L292 0H153Z" />
<glyph unicode="x" glyph-name="x" horiz-adv-x="545" d="M272 369L352 500H529L361 268L555 0H372L272 155L169 0H-10L180 268L12 500H191L272 369Z" />
<glyph unicode="y" glyph-name="y" horiz-adv-x="496" d="M250 210L347 500H506L255 -167H97L176 25L-10 500H149L250 210Z" />
<glyph unicode="z" glyph-name="z" horiz-adv-x="405" d="M389 386L193 113H389V0H17V103L227 387H17V500H389V386Z" />
<glyph unicode="{" glyph-name="braceleft" horiz-adv-x="500" d="M302 366Q302 315 290 290T242 240Q276 218 289 191T302 114V-24Q302 -64 324 -75Q337 -81 382 -81H402V-193H369L337 -195Q337 -195 327 -195Q245 -195 211 -162T176 -50V105Q176 180 121 191V298Q176
310 176 375V531Q176 609 210 642T327 675H337Q340 674 369 673Q369 673 402 673V561H382Q337 561 324 555Q302 544 302 504V366Z" />
<glyph unicode="|" glyph-name="bar" horiz-adv-x="500" d="M187 -250V750H313V-250H187Z" />
<glyph unicode="}" glyph-name="braceright" horiz-adv-x="500" d="M220 114Q220 165 232 190T280 240Q246 262 233 289T220 366V504Q220 545 197 555Q185 561 139 561H121V673H153L185 675Q185 675 195 675Q277 675 311 642T346 530V375Q346 300 401 289V182Q346
170 346 105V-51Q346 -129 311 -162T194 -195Q185 -195 185 -195L153 -193H121V-81H141Q185 -81 198 -75Q220 -64 220 -24V114Z" />
<glyph unicode="~" glyph-name="asciitilde" horiz-adv-x="667" d="M233 623Q208 623 194 611T160 561L90 607Q92 611 98 624Q128 692 159 718T241 745Q271 745 345 718Q411 694 432 694Q457 694 472 705T505 747L577 705Q551 651 532 628T484 589Q451 572 418
572Q394 572 317 600Q254 623 233 623Z" />
</font>
</defs>
</svg>
