<?xml version="1.0" standalone="no"?> <!DOCTYPE svg PUBLIC "-//W3C//DTD SVG 1.0//EN" "http://www.w3.org/TR/2001/REC-SVG-20010904/DTD/svg10.dtd" > <svg xmlns="http://www.w3.org/2000/svg" width="100%" height="100%">
<defs >
<font id="AVANGELI" horiz-adv-x="429" ><font-face
    font-family="AvantGardeExtLitITCTT"
    units-per-em="1000"
    panose-1="0 0 4 0 0 0 0 0 0 0"
    ascent="887"
    descent="-250"
    alphabetic="0" />
<missing-glyph horiz-adv-x="500" d="M63 0V750H438V0H63ZM125 63H375V688H125V63Z" />
<glyph unicode=" " glyph-name="space" horiz-adv-x="250" />
<glyph unicode="!" glyph-name="exclam" horiz-adv-x="193" d="M83 667H110V150H83V667ZM83 73H110V0H83V73Z" />
<glyph unicode="&quot;" glyph-name="quotedbl" horiz-adv-x="258" d="M90 667L86 398H67L64 667H90ZM195 667L191 398H172L168 667H195Z" />
<glyph unicode="#" glyph-name="numbersign" horiz-adv-x="600" d="M407 252H523L520 228H402L369 0H343L377 228H200L166 0H141L175 228H54L58 252H178L205 428H84L88 452H208L240 667H266L234 452H411L443 667H469L436 452H553L549 428H433L407 252ZM381 252L407
428H230L204 252H381Z" />
<glyph unicode="$" glyph-name="dollar" horiz-adv-x="500" d="M233 730H259V658Q394 641 405 512H379Q372 565 336 599T248 633Q195 633 158 595T121 503Q121 433 180 402Q207 388 267 371Q358 346 390 299Q419 257 419 202Q419 136 373 87T259 34V-51H233V34Q163
40 118 87T68 205H95Q101 140 143 100T248 60Q309 60 351 101T393 204Q393 308 261 345Q198 362 174 374T128 410Q95 447 95 504Q95 565 133 607T233 658V730Z" />
<glyph unicode="%" glyph-name="percent" horiz-adv-x="828" d="M206 345Q138 345 89 394T40 511Q40 582 88 630T206 679Q276 679 325 631T374 513Q374 444 325 395T206 345ZM619 -12Q551 -12 502 37T453 154Q453 224 501 272T619 321Q690 321 739 273T788 155Q788
86 738 37T619 -12ZM549 667H575L278 0H252L549 667ZM207 655Q148 655 107 614T65 512Q65 453 106 411T207 369Q266 369 307 411T349 512Q349 572 308 613T207 655ZM621 298Q561 298 520 257T479 154Q479 95 520 53T620 11Q678 11 720 53T762 155Q762 215 721 256T621
298Z" />
<glyph unicode="&amp;" glyph-name="ampersand" horiz-adv-x="640" d="M540 421H570L449 186L620 8L601 -10L435 160L413 118Q385 64 362 40T304 2T230 -12Q150 -12 95 42T40 175Q40 312 218 383L185 420Q148 462 137 483T125 537Q125 596 166 637T266 679Q327
679 370 636T414 534Q414 468 361 428Q334 408 263 376L429 206L540 421ZM416 181L237 364Q67 292 67 175Q67 106 114 60T230 13Q292 13 329 46Q361 75 390 131L416 181ZM199 442L243 396L286 415Q341 439 364 466T387 534Q387 584 352 619T267 654Q219 654 186
621T152 541Q152 491 199 442Z" />
<glyph unicode="&apos;" glyph-name="quotesingle" horiz-adv-x="154" d="M90 667L86 398H68L64 667H90Z" />
<glyph unicode="(" glyph-name="parenleft" horiz-adv-x="321" d="M209 615Q244 648 301 680V651Q223 605 167 530Q67 396 67 238Q67 80 167 -55Q195 -93 224 -120Q257 -151 301 -177V-205Q245 -170 211 -139T145 -67Q40 73 40 239Q40 342 84 441T209 615Z" />
<glyph unicode=")" glyph-name="parenright" horiz-adv-x="321" d="M112 -140Q77 -172 20 -205V-177Q100 -128 154 -56Q254 78 254 237Q254 395 154 530Q127 566 97 595Q70 621 20 652V680Q76 645 112 613T177 542Q281 402 281 236Q281 132 237 34T112 -140Z" />
<glyph unicode="*" glyph-name="asterisk" horiz-adv-x="500" d="M237 667H263V556L359 612L372 588L277 532L372 478L360 455L263 510V400H237V510L141 454L128 478L224 533L128 588L141 612L237 556V667Z" />
<glyph unicode="+" glyph-name="plus" horiz-adv-x="500" d="M33 315V339H238V525H263V339H467V315H263V130H238V315H33Z" />
<glyph unicode="," glyph-name="comma" horiz-adv-x="167" d="M85 73H113L57 -65H28L85 73Z" />
<glyph unicode="-" glyph-name="hyphen" horiz-adv-x="240" d="M0 232V258H240V232H0Z" />
<glyph unicode="." glyph-name="period" horiz-adv-x="167" d="M70 74H97V0H70V74Z" />
<glyph unicode="/" glyph-name="slash" horiz-adv-x="415" d="M332 667H362L3 -192H-27L332 667Z" />
<glyph unicode="0" glyph-name="zero" horiz-adv-x="500" d="M98 47Q36 102 36 196V462Q36 550 79 601Q144 679 248 679Q341 679 402 619T464 470V196Q464 108 410 55Q342 -12 251 -12Q165 -12 98 47ZM249 13Q332 13 385 64T438 196V470Q438 550 385 602T249 654Q165
654 114 602T62 465V196Q62 117 115 65T249 13Z" />
<glyph unicode="1" glyph-name="one" horiz-adv-x="500" d="M107 667H281V0H255V642H107V667Z" />
<glyph unicode="2" glyph-name="two" horiz-adv-x="500" d="M80 25H447V0H44V25L331 317Q387 374 403 404T420 479Q420 555 372 604T250 654Q176 654 130 602T82 464H55Q57 560 112 619T254 679Q335 679 391 621T447 477Q447 402 393 343Q388 338 349 298L80 25Z" />
<glyph unicode="3" glyph-name="three" horiz-adv-x="500" d="M239 -12Q154 -12 96 47T37 194H66Q68 114 117 64T241 13Q312 13 366 66T420 190Q420 267 366 318T230 369H194V394H229Q296 394 336 429T376 525Q376 580 339 617T246 654Q192 654 157 619T117 527H89Q93
593 137 636T243 679Q308 679 355 633T402 523Q402 476 377 437T309 383Q374 360 410 310T447 195Q447 110 386 49T239 -12Z" />
<glyph unicode="4" glyph-name="four" horiz-adv-x="500" d="M354 667H391V154H458V129H391V0H364V129H15V153L354 667ZM364 635L47 154H364V635Z" />
<glyph unicode="5" glyph-name="five" horiz-adv-x="500" d="M66 347L126 667H426V642H149L100 391Q168 443 243 443Q335 443 399 378T464 218Q464 123 399 56T241 -12Q155 -12 92 47T19 195H46Q55 116 110 65T242 13Q322 13 379 72T437 214Q437 298 380 358T241
419Q152 419 90 341L66 347Z" />
<glyph unicode="6" glyph-name="six" horiz-adv-x="500" d="M289 667H321L149 415Q200 441 249 441Q340 441 405 375T470 216Q470 121 406 55T250 -12Q158 -12 94 54T30 214Q30 290 87 373L289 667ZM250 416Q169 416 113 358T57 214Q57 130 113 72T249 13Q332
13 387 71T443 214Q443 297 387 356T250 416Z" />
<glyph unicode="7" glyph-name="seven" horiz-adv-x="500" d="M85 642V667H439V642L142 0H113L410 642H85Z" />
<glyph unicode="8" glyph-name="eight" horiz-adv-x="500" d="M419 519Q419 426 322 371Q453 312 453 188Q453 106 392 47T247 -12Q166 -12 107 47T47 186Q47 268 107 326Q132 350 184 374Q91 426 91 517Q91 584 139 631T256 679Q323 679 371 632T419 519ZM250
359Q180 359 127 307T74 186Q74 116 126 65T249 13Q323 13 374 63T426 187Q426 257 374 308T250 359ZM253 654Q197 654 157 614T117 519Q117 464 158 425T256 385Q311 385 351 424T392 517Q392 574 352 614T253 654Z" />
<glyph unicode="9" glyph-name="nine" horiz-adv-x="500" d="M227 0H195L359 251Q303 220 252 220Q161 220 96 287T30 448Q30 543 94 611T249 679Q341 679 405 612T470 451Q470 370 416 288L227 0ZM249 654Q169 654 113 595T56 451Q56 365 113 305T251 245Q330
245 387 305T444 449Q444 534 387 594T249 654Z" />
<glyph unicode=":" glyph-name="colon" horiz-adv-x="167" d="M70 74H97V0H70V74ZM70 478H97V404H70V478Z" />
<glyph unicode=";" glyph-name="semicolon" horiz-adv-x="167" d="M85 73H113L57 -65H28L85 73ZM83 478H110V404H83V478Z" />
<glyph unicode="&lt;" glyph-name="less" horiz-adv-x="500" d="M33 340L467 527V501L62 327L467 153V127L33 315V340Z" />
<glyph unicode="=" glyph-name="equal" horiz-adv-x="500" d="M33 399V423H467V399H33ZM33 264V287H467V264H33Z" />
<glyph unicode="&gt;" glyph-name="greater" horiz-adv-x="500" d="M467 314L33 127V153L438 327L33 501V527L467 339V314Z" />
<glyph unicode="?" glyph-name="question" horiz-adv-x="443" d="M203 73H230V0H203V73ZM230 157V150H203Q204 199 211 226Q226 285 286 342L334 388Q378 430 378 492Q378 560 331 607T215 654Q143 654 97 609T47 490H20Q24 573 77 626T213 679Q294 679 349 624T405
489Q405 418 339 355L297 315Q230 251 230 157Z" />
<glyph unicode="@" glyph-name="at" horiz-adv-x="733" d="M493 406L509 491H532L487 264Q481 234 481 213Q481 157 533 157Q587 157 628 223T669 375Q669 495 586 573T375 651Q240 651 148 559T56 332Q56 232 109 151T250 33Q312 8 393 8Q489 8 581 48Q593 54
623 68L633 48Q566 15 510 1T393 -13Q235 -13 134 84T32 334Q32 477 131 575T376 674Q512 674 602 589T692 376Q692 280 644 208T532 136Q461 136 461 211V213Q414 136 336 136Q274 136 235 181T196 299Q196 387 246 446T371 505Q464 505 493 406ZM337 158Q398
158 437 213T476 358V363Q476 418 448 450T371 483Q309 483 265 430T220 300Q220 237 252 198T337 158Z" />
<glyph unicode="A" glyph-name="A" horiz-adv-x="626" d="M487 232H139L39 0H10L296 667H330L616 0H587L487 232ZM313 642L150 257H475L313 642Z" />
<glyph unicode="B" glyph-name="B" horiz-adv-x="495" d="M77 0V667H218Q318 667 357 634Q413 586 413 499Q413 396 321 353Q382 338 418 290T455 178Q455 115 419 67Q381 16 321 5Q295 0 246 0H77ZM103 642V361H225Q301 361 344 398T387 501Q387 546 364 584T305
634Q281 642 218 642H103ZM103 337V25H247Q332 25 369 54Q428 100 428 180Q428 225 404 263T338 321Q314 332 298 334T225 337H103Z" />
<glyph unicode="C" glyph-name="C" horiz-adv-x="708" d="M602 100Q626 121 643 145H674Q633 74 554 31T386 -12Q243 -12 140 90T37 334Q37 477 139 578T386 679Q473 679 550 636T675 519H643Q618 554 584 581Q492 654 385 654Q250 654 157 561T64 333Q64 200
158 107T386 13Q475 13 547 57Q570 71 602 100Z" />
<glyph unicode="D" glyph-name="D" horiz-adv-x="638" d="M77 0V667H261Q365 667 420 639Q498 599 549 513T601 333Q601 233 540 139Q475 39 383 12Q341 0 245 0H77ZM103 642V25H265Q352 25 399 47Q443 68 482 109Q574 207 574 335Q574 420 529 496T411 613Q359
642 262 642H103Z" />
<glyph unicode="E" glyph-name="E" horiz-adv-x="492" d="M77 0V667H442V642H103V348H442V323H103V25H442V0H77Z" />
<glyph unicode="F" glyph-name="F" horiz-adv-x="437" d="M77 0V667H403V642H103V348H403V323H103V0H77Z" />
<glyph unicode="G" glyph-name="G" horiz-adv-x="772" d="M309 258V283H739Q723 159 623 74T392 -12Q246 -12 142 89T37 333Q37 477 140 578T389 679Q480 679 561 636T686 519H654Q550 654 390 654Q255 654 160 560T64 332Q64 202 160 108T391 13Q503 13 594 84T706
258H309Z" />
<glyph unicode="H" glyph-name="H" horiz-adv-x="579" d="M77 667H103V348H476V667H503V0H476V323H103V0H77V667Z" />
<glyph unicode="I" glyph-name="I" horiz-adv-x="180" d="M77 667H103V0H77V667Z" />
<glyph unicode="J" glyph-name="J" horiz-adv-x="404" d="M307 667H334V188Q334 92 299 48Q252 -12 166 -12Q102 -12 56 26T0 127H29Q58 13 168 13Q237 13 277 64Q298 90 304 123Q307 142 307 188V667Z" />
<glyph unicode="K" glyph-name="K" horiz-adv-x="497" d="M77 667H103V216L445 667H477L229 338L477 0H445L212 316L103 174V0H77V667Z" />
<glyph unicode="L" glyph-name="L" horiz-adv-x="406" d="M77 667H103V25H386V0H77V667Z" />
<glyph unicode="M" glyph-name="M" horiz-adv-x="854" d="M77 667H120L427 43L736 667H777V0H751V639L435 0H420L103 639V0H77V667Z" />
<glyph unicode="N" glyph-name="N" horiz-adv-x="679" d="M77 667H117L575 36V667H602V0H568L103 639V0H77V667Z" />
<glyph unicode="O" glyph-name="O" horiz-adv-x="767" d="M383 -12Q238 -12 138 88T37 331Q37 477 136 578T381 679Q528 679 628 579T729 332Q729 188 629 88T383 -12ZM382 654Q248 654 156 562T64 334Q64 198 156 106T385 13Q518 13 610 106T703 334Q703 469
610 561T382 654Z" />
<glyph unicode="P" glyph-name="P" horiz-adv-x="492" d="M77 0V667H253Q336 667 376 644T440 574T465 477Q465 423 439 376T365 307Q324 289 231 289H103V0H77ZM103 642V313H232Q339 313 383 350Q439 397 439 478Q439 523 418 561T362 621T227 642H103Z" />
<glyph unicode="Q" glyph-name="Q" horiz-adv-x="769" d="M613 73Q687 29 785 16V-12Q672 3 609 44L592 55Q490 -12 386 -12Q243 -12 140 90T37 333Q37 475 139 577T385 679Q530 679 630 579T731 332Q731 182 613 73ZM64 335Q64 279 87 223Q166 249 238 249Q392
249 516 148L548 122L572 104L590 90Q705 190 705 335Q705 466 611 560T385 654Q254 654 159 560T64 335ZM234 224Q168 224 98 198Q196 13 387 13Q476 13 568 73L553 84L526 105L497 128Q376 224 234 224Z" />
<glyph unicode="R" glyph-name="R" horiz-adv-x="545" d="M77 0V667H229Q358 667 406 641Q448 618 475 568T502 461Q502 371 447 311T307 251H280L459 0H425L230 276H271Q357 276 399 306Q475 360 475 460Q475 507 453 549T396 615Q365 635 315 640Q295 642 229
642H103V0H77Z" />
<glyph unicode="S" glyph-name="S" horiz-adv-x="456" d="M221 -12Q143 -12 89 39T27 169H55Q65 97 109 55T221 13Q291 13 340 59T389 172Q389 262 312 304Q283 320 218 336Q114 362 77 406Q43 447 43 504Q43 579 95 629T225 679Q295 679 341 637T397 523H369Q345
654 222 654Q156 654 113 613T70 509Q70 453 105 420T219 367Q308 346 343 321Q415 270 415 175Q415 97 359 43T221 -12Z" />
<glyph unicode="T" glyph-name="T" horiz-adv-x="414" d="M13 642L14 667H401V642H220V0H193V642H13Z" />
<glyph unicode="U" glyph-name="U" horiz-adv-x="548" d="M70 667H97V242Q97 182 101 158Q109 116 135 81Q186 13 273 13Q360 13 410 74Q438 108 446 150Q451 174 451 234V667H478V234Q478 166 467 127T428 56Q368 -12 273 -12Q218 -12 170 15T96 91T70 242V667Z" />
<glyph unicode="V" glyph-name="V" horiz-adv-x="587" d="M0 667H30L293 45L557 667H587L302 0H283L0 667Z" />
<glyph unicode="W" glyph-name="W" horiz-adv-x="812" d="M17 667H46L225 37L396 667H415L588 37L767 667H795L604 0H570L405 596L243 0H207L17 667Z" />
<glyph unicode="X" glyph-name="X" horiz-adv-x="498" d="M15 667H47L248 364L451 667H482L264 339L492 0H461L248 316L36 0H7L233 339L15 667Z" />
<glyph unicode="Y" glyph-name="Y" horiz-adv-x="486" d="M7 667H37L243 260L448 667H479L256 230V0H230V230L7 667Z" />
<glyph unicode="Z" glyph-name="Z" horiz-adv-x="493" d="M466 25V0H39L403 642H27V667H448L84 25H466Z" />
<glyph unicode="[" glyph-name="bracketleft" horiz-adv-x="321" d="M133 613Q168 653 224 680V651Q181 630 152 596T113 530T103 449V26Q103 -24 113 -55T151 -119Q181 -155 224 -177V-205Q169 -180 133 -138Q77 -73 77 26V449Q77 548 133 613Z" />
<glyph unicode="\" glyph-name="backslash" horiz-adv-x="500" d="M24 750H50L451 -83H426L24 750Z" />
<glyph unicode="]" glyph-name="bracketright" horiz-adv-x="321" d="M188 -138Q152 -180 97 -205V-177Q140 -155 170 -119Q198 -86 208 -55T218 26V449Q218 499 208 530T169 595T97 651V680Q153 653 188 613Q244 548 244 449V26Q244 -73 188 -138Z" />
<glyph unicode="^" glyph-name="asciicircum" horiz-adv-x="500" d="M249 647L74 390H43L233 667H267L458 390H425L249 647Z" />
<glyph unicode="_" glyph-name="underscore" horiz-adv-x="500" d="M0 -107V-85H500V-107H0Z" />
<glyph unicode="`" glyph-name="grave" horiz-adv-x="500" d="M134 688L301 552L286 534L120 670L134 688Z" />
<glyph unicode="a" glyph-name="a" horiz-adv-x="621" d="M526 478H551V0H526V126Q454 -12 297 -12Q187 -12 112 60T36 238Q36 343 111 416T294 490Q392 490 465 429Q500 400 526 352V478ZM294 467Q196 467 129 401T61 238Q61 143 129 77T296 11Q393 11 459 76T526
237Q526 332 458 399T294 467Z" />
<glyph unicode="b" glyph-name="b" horiz-adv-x="618" d="M70 667H95V352Q172 490 324 490Q430 490 506 416T582 237Q582 134 507 61T325 -12Q251 -12 190 25T95 126V0H70V667ZM326 467Q229 467 163 400T96 234Q96 143 163 77T324 11Q420 11 488 77T557 236Q557
332 490 399T326 467Z" />
<glyph unicode="c" glyph-name="c" horiz-adv-x="553" d="M286 11Q353 11 408 49T490 151H520Q496 79 431 34T288 -12Q184 -12 110 61T36 238Q36 343 109 416T287 490Q345 490 399 462T489 384Q501 367 521 323H491Q463 385 416 422Q359 467 287 467Q192 467 127
400T61 236Q61 143 127 77T286 11Z" />
<glyph unicode="d" glyph-name="d" horiz-adv-x="624" d="M529 667H554V0H529V130Q507 87 478 59Q403 -12 296 -12Q187 -12 112 61T36 240Q36 347 110 418T297 490Q411 490 489 410Q510 388 529 352V667ZM294 467Q197 467 129 402T61 241Q61 146 129 79T294 11Q392
11 460 78T529 240Q529 335 461 401T294 467Z" />
<glyph unicode="e" glyph-name="e" horiz-adv-x="557" d="M521 249V236H64Q70 138 131 75T280 11Q339 11 390 45T469 137H498Q470 69 411 29T280 -12Q181 -12 109 64T36 243Q36 345 107 417T278 490Q376 490 448 418T521 249ZM64 259H493Q486 346 424 406T278
467Q194 467 134 409T64 259Z" />
<glyph unicode="f" glyph-name="f" horiz-adv-x="253" d="M115 0H90V455H11V478H90V509Q90 598 148 636Q185 660 239 663V635Q115 626 115 509V478H239V455H115V0Z" />
<glyph unicode="g" glyph-name="g" horiz-adv-x="621" d="M525 478H551V53Q551 -47 498 -111Q421 -204 302 -204Q225 -204 161 -164T66 -57H96Q168 -181 300 -181Q397 -181 461 -116T525 48V128Q446 -12 297 -12Q187 -12 112 60T36 238Q36 343 111 416T293 490Q410
490 484 410Q507 385 525 347V478ZM293 467Q197 467 129 401T61 240Q61 145 129 78T294 11Q390 11 457 77T525 239Q525 333 457 400T293 467Z" />
<glyph unicode="h" glyph-name="h" horiz-adv-x="575" d="M70 667H95V387Q117 433 170 461T286 490Q407 490 468 409Q508 356 508 247V0H483V247Q483 343 447 391Q390 467 286 467Q229 467 182 440T112 367Q95 333 95 261V0H70V667Z" />
<glyph unicode="i" glyph-name="i" horiz-adv-x="165" d="M70 478H95V0H70V478ZM70 667H95V585H70V667Z" />
<glyph unicode="j" glyph-name="j" horiz-adv-x="165" d="M70 667H95V584H70V667ZM70 478H95V5Q95 -52 90 -79Q82 -125 55 -154Q25 -186 -28 -193V-167Q20 -158 41 -131Q70 -94 70 5V478Z" />
<glyph unicode="k" glyph-name="k" horiz-adv-x="423" d="M70 667H95V131L357 478H390L214 244L406 0H373L198 224L95 88V0H70V667Z" />
<glyph unicode="l" glyph-name="l" horiz-adv-x="165" d="M70 667H95V0H70V667Z" />
<glyph unicode="m" glyph-name="m" horiz-adv-x="853" d="M70 478H98V402Q152 490 251 490Q313 490 364 454Q405 425 427 372Q443 410 463 432Q516 490 599 490Q708 490 763 396Q787 355 787 268V0H761V268Q761 370 715 417Q666 467 599 467Q552 467 512 441T454
373Q441 341 441 268V0H416V263Q416 356 378 405Q330 467 254 467Q181 467 134 413Q95 368 95 273V0H70V478Z" />
<glyph unicode="n" glyph-name="n" horiz-adv-x="575" d="M70 478H95V387Q116 432 169 461T287 490Q387 490 455 422Q509 368 509 264V0H483V264Q483 356 429 411T286 467Q202 467 146 413Q95 364 95 275V0H70V478Z" />
<glyph unicode="o" glyph-name="o" horiz-adv-x="575" d="M285 -12Q183 -12 110 61T36 237Q36 343 108 416T286 490Q392 490 465 417T539 240Q539 136 465 62T285 -12ZM288 467Q193 467 127 401T61 239Q61 144 127 78T287 11Q381 11 447 78T514 239Q514 334 448
400T288 467Z" />
<glyph unicode="p" glyph-name="p" horiz-adv-x="612" d="M70 478H95V349Q126 415 187 452T323 490Q427 490 501 417T576 240Q576 134 501 61T319 -12Q249 -12 189 25T95 126V-192H70V478ZM322 467Q228 467 162 401T95 240Q95 146 162 79T324 11Q417 11 484 78T551
239Q551 333 484 400T322 467Z" />
<glyph unicode="q" glyph-name="q" horiz-adv-x="609" d="M514 478H539V-192H514V127Q484 62 424 25T291 -12Q185 -12 111 61T36 239Q36 343 110 416T289 490Q364 490 426 451T514 348V478ZM285 467Q194 467 128 400T61 239Q61 146 128 79T287 11Q381 11 447 77T514
237Q514 331 447 399T285 467Z" />
<glyph unicode="r" glyph-name="r" horiz-adv-x="277" d="M70 0V478H95V392Q140 481 264 490V463Q199 458 161 430T109 367T95 259V0H70Z" />
<glyph unicode="s" glyph-name="s" horiz-adv-x="378" d="M184 -12Q117 -12 73 32T28 146H56Q57 85 92 48T186 11Q237 11 273 45T310 128Q310 204 221 230L159 248Q62 276 62 362Q62 416 99 453T189 490Q242 490 275 457T315 365H287Q275 467 186 467Q144 467
116 439T88 367Q88 327 109 307T192 271Q336 233 336 131Q336 72 291 30T184 -12Z" />
<glyph unicode="t" glyph-name="t" horiz-adv-x="241" d="M90 667H115V478H238V455H115V0H90V455H-15V478H90V667Z" />
<glyph unicode="u" glyph-name="u" horiz-adv-x="576" d="M481 478H506V0H481V94Q453 52 424 31Q365 -12 285 -12Q180 -12 119 53Q89 85 78 122T67 226V478H92V226Q92 165 102 132T140 70Q196 11 284 11Q386 11 443 83Q470 117 477 155Q481 177 481 235V478Z" />
<glyph unicode="v" glyph-name="v" horiz-adv-x="427" d="M1 478H29L213 29L397 478H426L229 0H197L1 478Z" />
<glyph unicode="w" glyph-name="w" horiz-adv-x="689" d="M11 478H39L202 38L335 413H354L488 38L649 478H677L501 0H472L344 362L216 0H187L11 478Z" />
<glyph unicode="x" glyph-name="x" horiz-adv-x="375" d="M13 478H45L188 264L331 478H362L203 240L362 0H331L188 215L45 0H13L173 240L13 478Z" />
<glyph unicode="y" glyph-name="y" horiz-adv-x="425" d="M1 478H29L206 35L394 478H424L135 -192H106L191 1L1 478Z" />
<glyph unicode="z" glyph-name="z" horiz-adv-x="384" d="M39 455V478H352V455L54 23H367V0H23V24L320 455H39Z" />
<glyph unicode="{" glyph-name="braceleft" horiz-adv-x="500" d="M250 356Q250 309 237 286T188 248Q250 225 250 137V-57Q250 -165 334 -165H343V-184Q267 -184 243 -141Q225 -109 225 -32V141Q225 187 213 207T167 241V257Q199 268 212 290T225 356V550Q225
683 336 683H343V664Q291 660 271 638T250 562V356Z" />
<glyph unicode="|" glyph-name="bar" horiz-adv-x="500" d="M238 -250L237 750H263V-250H238Z" />
<glyph unicode="}" glyph-name="braceright" horiz-adv-x="500" d="M251 143Q251 190 264 213T313 251Q251 274 251 362V556Q251 664 167 664H158V683Q234 683 258 640Q276 608 276 531V358Q276 312 288 292T335 258V242Q302 231 289 209T276 143V-51Q276 -184
165 -184H158V-165H167Q251 -165 251 -63V143Z" />
<glyph unicode="~" glyph-name="asciitilde" horiz-adv-x="667" d="M221 683Q164 683 115 601L95 613Q149 708 221 708Q261 708 339 667Q411 629 445 629Q503 629 552 710L571 698Q517 603 444 603Q407 603 307 655Q253 683 221 683Z" />
</font>
</defs>
</svg>
