<?xml version="1.0" standalone="no"?> <!DOCTYPE svg PUBLIC "-//W3C//DTD SVG 1.0//EN" "http://www.w3.org/TR/2001/REC-SVG-20010904/DTD/svg10.dtd" > <svg xmlns="http://www.w3.org/2000/svg" width="100%" height="100%">
<defs >
<font id="AVANGIDO" horiz-adv-x="446" ><font-face
    font-family="AvantGardeITCTT"
    units-per-em="1000"
    panose-1="0 0 4 0 0 0 0 0 0 0"
    ascent="927"
    descent="-250"
    alphabetic="0" />
<missing-glyph horiz-adv-x="500" d="M63 0V756H438V0H63ZM125 63H375V694H125V63Z" />
<glyph unicode=" " glyph-name="space" horiz-adv-x="250" />
<glyph unicode="!" glyph-name="exclam" horiz-adv-x="255" d="M44 111H159L137 0H22L44 111ZM152 667H267L170 167H55L152 667Z" />
<glyph unicode="&quot;" glyph-name="quotedbl" horiz-adv-x="364" d="M219 667L201 399H130L112 667H219ZM380 667L362 399H291L274 667H380Z" />
<glyph unicode="#" glyph-name="numbersign" horiz-adv-x="600" d="M461 284H567L536 196H430L361 0H262L331 196H217L148 0H50L119 196H12L42 284H149L189 396H82L112 484H219L283 667H382L317 484H431L495 667H594L530 484H635L605 396H500L461 284ZM362 284L400
396H287L248 284H362Z" />
<glyph unicode="$" glyph-name="dollar" horiz-adv-x="500" d="M264 661L286 775H398L374 651Q478 610 478 504Q478 488 474 473H357Q360 490 360 496Q360 525 342 543T293 561Q261 561 240 541T219 491Q219 465 234 448T301 397Q367 355 394 322Q434 273 434
213Q434 133 382 76T250 11L226 -113H114L140 23Q98 38 71 67Q24 118 24 182Q24 202 28 219H147Q144 204 144 190Q144 156 167 135T228 114Q266 114 290 137T314 198Q314 249 234 297Q213 309 187 327T142 365Q99 413 99 476Q99 548 143 597T264 661Z" />
<glyph unicode="%" glyph-name="percent" horiz-adv-x="858" d="M421 530Q421 522 421 522Q417 447 368 400T244 352Q174 352 129 394T84 502Q84 578 135 628T263 679Q333 679 377 637T421 530ZM807 166Q807 158 807 158Q804 83 755 36T630 -12Q560 -12 516 30T471
138Q471 214 522 264T650 315Q719 315 763 273T807 166ZM190 0L614 667H701L275 0H190ZM245 445Q275 445 297 466T321 520Q321 520 321 525Q321 551 304 568T260 585Q228 585 206 562T184 506Q184 480 201 463T245 445ZM631 81Q661 81 683 102T707 156Q707 156
707 161Q707 187 690 204T647 221Q615 221 593 198T570 142Q570 116 587 99T631 81Z" />
<glyph unicode="&amp;" glyph-name="ampersand" horiz-adv-x="655" d="M411 284L501 429H624L485 201L607 68L518 -11L415 99L406 88Q352 22 299 2Q261 -12 222 -12Q135 -12 79 41T23 175Q23 313 162 379Q118 433 118 493Q118 573 172 626T309 679Q382 679 428
637T475 529Q475 487 451 446Q417 388 345 354L411 284ZM240 505Q240 466 277 429Q357 468 357 520Q357 542 342 557T304 572Q278 572 259 553T240 505ZM342 179L229 305Q144 250 144 185Q144 149 167 125T226 100Q293 100 342 179Z" />
<glyph unicode="&apos;" glyph-name="quotesingle" horiz-adv-x="202" d="M219 667L201 399H130L112 667H219Z" />
<glyph unicode="(" glyph-name="parenleft" horiz-adv-x="313" d="M229 610Q274 646 300 660T372 687L347 557Q232 504 174 360Q135 263 135 167Q135 24 226 -63L203 -183Q118 -131 70 -36T22 178Q22 307 75 419T229 610Z" />
<glyph unicode=")" glyph-name="parenright" horiz-adv-x="313" d="M87 -107Q42 -142 16 -156T-57 -183L-32 -54Q84 1 142 144Q180 239 180 337Q180 481 89 566L112 687Q198 634 245 539T293 325Q293 196 240 84T87 -107Z" />
<glyph unicode="*" glyph-name="asterisk" horiz-adv-x="500" d="M179 617L277 559L296 672L366 659L341 548L455 565L464 494L350 483L402 381L337 350L292 455L210 374L161 426L246 501L144 554L179 617Z" />
<glyph unicode="+" glyph-name="plus" horiz-adv-x="500" d="M51 291V381H219V544H316V381H484V291H316V128H219V291H51Z" />
<glyph unicode="," glyph-name="comma" horiz-adv-x="231" d="M31 115H148L129 15Q113 -69 77 -101Q48 -126 -12 -126H-16L-4 -64Q-2 -64 1 -65Q3 -65 4 -65Q47 -65 59 0H9L31 115Z" />
<glyph unicode="-" glyph-name="hyphen" horiz-adv-x="235" d="M-8 208L12 308H247L228 208H-8Z" />
<glyph unicode="." glyph-name="period" horiz-adv-x="231" d="M30 111H148L126 0H9L30 111Z" />
<glyph unicode="/" glyph-name="slash" horiz-adv-x="454" d="M403 667H496L-19 -163H-109L403 667Z" />
<glyph unicode="0" glyph-name="zero" horiz-adv-x="500" d="M23 184Q23 228 33 278L67 449Q113 679 305 679Q394 679 452 625T511 486Q511 447 501 395L468 222Q447 111 399 58Q336 -12 230 -12Q140 -12 82 43T23 184ZM214 521Q194 493 180 417L150 260Q142 218
142 196Q142 153 167 127T234 101Q283 101 310 134T353 247L384 408Q391 444 391 470Q391 513 367 539T301 565Q244 565 214 521Z" />
<glyph unicode="1" glyph-name="one" horiz-adv-x="500" d="M313 667H462L332 0H212L312 510L132 319L52 396L313 667Z" />
<glyph unicode="2" glyph-name="two" horiz-adv-x="500" d="M190 113H459L437 0H-2L20 113L247 304Q320 366 348 401Q379 440 379 488Q379 522 356 543T297 565Q253 565 230 537T193 443H71Q103 679 302 679Q390 679 444 629T499 496Q499 398 410 303Q369 259
277 184L190 113Z" />
<glyph unicode="3" glyph-name="three" horiz-adv-x="500" d="M4 164Q4 178 8 199H131Q130 189 130 181Q130 147 158 124T231 101Q280 101 312 131T344 209Q344 256 311 282T217 308H200L189 307L210 417Q221 416 233 416Q288 416 320 439T352 501Q352 530 332
547T278 565Q214 565 201 500H76Q108 679 283 679Q368 679 420 634T472 515Q472 454 437 413T341 361Q465 336 465 210Q465 113 398 51T224 -12Q128 -12 66 37T4 164Z" />
<glyph unicode="4" glyph-name="four" horiz-adv-x="500" d="M356 667H495L410 229H483L461 116H388L365 0H244L267 116H-12L11 234L356 667ZM127 229H289L344 513L127 229Z" />
<glyph unicode="5" glyph-name="five" horiz-adv-x="500" d="M39 318L175 667H496L474 553H250L201 424Q246 445 295 445Q370 445 420 390T471 253Q471 136 403 62T228 -12Q133 -12 74 40T14 177Q14 185 17 203H129V197Q129 156 156 129T227 101Q280 101 315 139T351
236Q351 284 322 314T246 345Q185 345 145 286L39 318Z" />
<glyph unicode="6" glyph-name="six" horiz-adv-x="500" d="M171 489L330 667H466L274 453Q290 455 291 455Q372 455 424 397T477 248Q477 137 406 63T229 -12Q137 -12 77 48T17 201Q17 264 45 322T171 489ZM238 101Q287 101 322 142T357 242Q357 294 329 324T254
355Q205 355 171 314T137 215Q137 164 165 133T238 101Z" />
<glyph unicode="7" glyph-name="seven" horiz-adv-x="500" d="M134 667H540L518 553L167 0H26L381 553H112L134 667Z" />
<glyph unicode="8" glyph-name="eight" horiz-adv-x="500" d="M472 519Q472 417 374 366Q468 327 468 220Q468 121 399 55T227 -12Q134 -12 76 42T18 183Q18 328 159 373Q104 419 104 489Q104 567 162 623T301 679Q377 679 424 635T472 519ZM281 418Q315 418 338
447Q359 473 359 508Q359 537 342 556T296 575Q264 575 241 549T217 485Q217 456 235 437T281 418ZM234 101Q280 101 314 135T348 217Q348 259 321 286T253 314Q205 314 172 280T138 195Q138 153 164 127T234 101Z" />
<glyph unicode="9" glyph-name="nine" horiz-adv-x="500" d="M371 186L208 0H71L258 213Q251 212 245 212Q162 212 108 270T54 419Q54 530 125 604T302 679Q398 679 460 618T522 463Q522 357 432 255L371 186ZM278 310Q329 310 365 352T401 453Q401 503 372 534T296
565Q244 565 209 525T174 425Q174 373 202 342T278 310Z" />
<glyph unicode=":" glyph-name="colon" horiz-adv-x="231" d="M30 111H148L126 0H9L30 111ZM107 507H224L203 395H86L107 507Z" />
<glyph unicode=";" glyph-name="semicolon" horiz-adv-x="231" d="M31 115H148L129 15Q113 -69 77 -101Q48 -126 -12 -126H-16L-4 -64Q-2 -64 1 -65Q3 -65 4 -65Q47 -65 59 0H9L31 115ZM107 507H224L203 395H86L107 507Z" />
<glyph unicode="&lt;" glyph-name="less" horiz-adv-x="500" d="M29 373L463 583V487L132 332L462 176L463 80L29 291V373Z" />
<glyph unicode="=" glyph-name="equal" horiz-adv-x="500" d="M52 379V464H485V379H52ZM52 218V303H485V218H52Z" />
<glyph unicode="&gt;" glyph-name="greater" horiz-adv-x="500" d="M504 290L70 80V176L401 332L71 488L70 583L504 373V290Z" />
<glyph unicode="?" glyph-name="question" horiz-adv-x="462" d="M127 111H243L221 0H106L127 111ZM274 570Q198 570 178 476H58Q92 677 280 677Q368 677 423 628T478 501Q478 419 419 364Q398 344 362 319Q310 282 290 261T259 213Q251 192 247 166H133Q140 219
158 258T201 323T279 384Q362 439 362 494Q362 526 337 548T274 570Z" />
<glyph unicode="@" glyph-name="at" horiz-adv-x="733" d="M511 439L532 491H599L521 290Q505 249 505 233Q505 205 529 205Q582 205 632 296Q668 361 668 429Q668 514 611 564T456 615Q319 615 215 511T110 270Q110 166 172 108T347 49Q457 49 556 89L561 27Q459
-12 337 -12Q201 -12 122 61T42 260Q42 425 170 551T465 677Q584 677 656 612T729 439Q729 368 697 300T608 186Q561 148 514 148Q488 148 470 163T452 202V210Q393 142 315 142Q263 142 232 175T201 264Q201 366 289 447Q350 503 419 503Q493 503 511 439ZM475
369V378Q470 433 415 433Q357 433 313 373Q280 328 280 280Q280 211 345 211Q403 211 444 276Q475 325 475 369Z" />
<glyph unicode="A" glyph-name="A" horiz-adv-x="648" d="M320 667H469L602 0H475L439 189H190L86 0H-49L320 667ZM250 301H418L375 542L250 301Z" />
<glyph unicode="B" glyph-name="B" horiz-adv-x="516" d="M13 0L143 667H283Q387 667 434 634Q463 614 481 579T500 509Q500 384 378 350Q478 318 478 212Q478 155 449 105T370 28Q317 0 191 0H13ZM244 555L215 401H259Q312 401 344 426T376 493Q376 527 354 541T278
555H244ZM195 303L158 112H222Q291 112 322 137T354 219Q354 303 243 303H195Z" />
<glyph unicode="C" glyph-name="C" horiz-adv-x="709" d="M533 180Q540 189 552 205H685Q642 104 555 46T361 -12Q227 -12 137 76T46 294Q46 459 149 569T406 679Q523 679 604 618T712 450H585Q533 567 406 567Q307 567 238 490T169 301Q169 213 224 157T364 100Q467
100 533 180Z" />
<glyph unicode="D" glyph-name="D" horiz-adv-x="657" d="M13 0L143 667H320Q504 667 587 559Q645 484 645 376Q645 234 563 130Q509 61 434 31T243 0H13ZM244 555L158 111Q197 110 245 110Q359 110 425 158Q471 192 493 239Q521 299 521 372Q521 481 449 525Q400
555 306 555H244Z" />
<glyph unicode="E" glyph-name="E" horiz-adv-x="450" d="M13 0L143 667H482L461 555H244L215 401H437L416 289H193L158 112H384L362 0H13Z" />
<glyph unicode="F" glyph-name="F" horiz-adv-x="414" d="M13 0L143 667H471L449 555H244L212 390H417L396 278H191L137 0H13Z" />
<glyph unicode="G" glyph-name="G" horiz-adv-x="766" d="M306 233L328 345H752Q742 187 638 88T379 -12Q235 -12 141 76T47 298Q47 463 153 571T423 679Q541 679 624 622T741 461H606Q547 567 419 567Q313 567 242 492T170 304Q170 215 229 158T379 100Q470 100
538 158Q571 187 597 233H306Z" />
<glyph unicode="H" glyph-name="H" horiz-adv-x="591" d="M13 0L143 667H266L215 401H436L488 667H611L482 0H358L414 289H193L137 0H13Z" />
<glyph unicode="I" glyph-name="I" horiz-adv-x="246" d="M13 0L143 667H266L137 0H13Z" />
<glyph unicode="J" glyph-name="J" horiz-adv-x="421" d="M237 217L324 667H448L353 182Q333 80 290 38Q239 -12 157 -12Q80 -12 31 30T-18 138Q-18 153 -16 167H105Q104 161 104 153Q104 130 119 115T160 100Q194 100 208 121T237 217Z" />
<glyph unicode="K" glyph-name="K" horiz-adv-x="548" d="M13 0L143 667H266L213 394L468 667H615L310 341L506 0H368L196 307L137 0H13Z" />
<glyph unicode="L" glyph-name="L" horiz-adv-x="419" d="M13 0L143 667H266L158 112H376L354 0H13Z" />
<glyph unicode="M" glyph-name="M" horiz-adv-x="811" d="M239 529L137 0H13L143 667H338L389 146L626 667H832L702 0H579L681 529L429 0H296L239 529Z" />
<glyph unicode="N" glyph-name="N" horiz-adv-x="664" d="M13 0L143 667H306L463 163L561 667H684L554 0H389L234 500L137 0H13Z" />
<glyph unicode="O" glyph-name="O" horiz-adv-x="768" d="M47 299Q47 463 154 571T427 679Q570 679 662 591T755 367Q755 206 648 97T380 -12Q235 -12 141 76T47 299ZM632 366Q632 453 572 510T419 567Q314 567 242 491T170 303Q170 215 229 158T381 100Q489 100
560 176T632 366Z" />
<glyph unicode="P" glyph-name="P" horiz-adv-x="503" d="M13 0L143 667H298Q405 667 460 627Q528 578 528 486Q528 381 462 318T285 255H186L137 0H13ZM244 555L208 367H275Q405 367 405 472Q405 555 296 555H244Z" />
<glyph unicode="Q" glyph-name="Q" horiz-adv-x="771" d="M700 97Q706 97 736 100L716 0Q701 -5 675 -5Q605 -5 559 32Q475 -12 378 -12Q235 -12 141 75T46 295Q46 460 152 569T418 679Q567 679 661 591T755 363Q755 295 732 232Q708 166 656 108Q679 97 700 97ZM418
567Q310 567 241 493T170 302Q177 304 189 306Q234 317 271 317Q428 317 561 178Q632 263 632 363Q632 452 572 509T418 567ZM383 100Q424 100 469 114Q411 172 363 189T263 206Q244 206 195 199Q261 100 383 100Z" />
<glyph unicode="R" glyph-name="R" horiz-adv-x="560" d="M13 0L143 667H318Q436 667 489 629Q564 575 564 474Q564 391 514 329Q480 288 434 269Q397 255 336 250L486 0H346L192 285L137 0H13ZM244 555L205 350H286Q362 350 397 377Q440 411 440 468Q440 555
324 555H244Z" />
<glyph unicode="S" glyph-name="S" horiz-adv-x="491" d="M490 507Q490 499 487 478H356Q359 495 359 500Q359 529 338 548T284 567Q249 567 226 546T203 494Q203 466 221 448T298 394Q374 349 404 316Q450 265 450 199Q450 109 384 49T218 -12Q126 -12 65 39T4
169Q4 184 9 205H131Q128 192 128 178Q128 144 155 122T225 100Q269 100 298 124T327 186Q327 216 307 239T235 292Q176 326 161 336T127 367Q80 417 80 481Q80 566 142 622T296 679Q381 679 435 631T490 507Z" />
<glyph unicode="T" glyph-name="T" horiz-adv-x="400" d="M69 555L91 667H472L451 555H325L218 0H94L202 555H69Z" />
<glyph unicode="U" glyph-name="U" horiz-adv-x="594" d="M52 232L136 667H260L178 245Q172 214 172 191Q172 148 200 124T276 100Q387 100 413 232L498 667H621L540 252Q521 156 507 125Q486 79 450 48Q381 -12 270 -12Q169 -12 108 40T47 180Q47 206 52 232Z" />
<glyph unicode="V" glyph-name="V" horiz-adv-x="623" d="M202 0L75 667H197L297 140L579 667H712L350 0H202Z" />
<glyph unicode="W" glyph-name="W" horiz-adv-x="906" d="M505 507L280 0H121L94 667H221L229 147L461 667H612L621 138L847 667H976L677 0H520L505 507Z" />
<glyph unicode="X" glyph-name="X" horiz-adv-x="615" d="M250 356L91 667H234L345 442L534 667H685L403 345L574 0H435L313 261L99 0H-55L250 356Z" />
<glyph unicode="Y" glyph-name="Y" horiz-adv-x="543" d="M220 252L75 667H204L297 368L493 667H632L343 252L294 0H171L220 252Z" />
<glyph unicode="Z" glyph-name="Z" horiz-adv-x="490" d="M82 555L104 667H520L500 561L147 112H446L424 0H-26L-4 112L348 555H82Z" />
<glyph unicode="[" glyph-name="bracketleft" horiz-adv-x="313" d="M263 679T322 687L299 565Q259 556 243 531T212 432L137 43Q133 22 133 6Q133 -44 177 -60L153 -183Q90 -165 53 -117T15 -6Q15 33 29 103L30 110L94 435Q109 509 120 540T153 601Q183 640 223 659Z" />
<glyph unicode="\" glyph-name="backslash" horiz-adv-x="500" d="M43 750H138L472 -83H377L43 750Z" />
<glyph unicode="]" glyph-name="bracketright" horiz-adv-x="313" d="M52 -177T-7 -183L16 -61Q56 -52 72 -27T103 72L178 460Q182 481 182 497Q182 548 138 564L162 687Q225 668 262 620T300 509Q300 471 285 394L222 69Q208 -5 197 -37T162 -98Q133 -136 93 -156Z" />
<glyph unicode="^" glyph-name="asciicircum" horiz-adv-x="500" d="M270 592L139 352H37L207 669H334L504 352H401L270 592Z" />
<glyph unicode="_" glyph-name="underscore" horiz-adv-x="500" d="M-68 -145V-58H432V-145H-68Z" />
<glyph unicode="`" glyph-name="grave" horiz-adv-x="500" d="M181 682L237 750L408 609L356 547L181 682Z" />
<glyph unicode="a" glyph-name="a" horiz-adv-x="601" d="M481 507H597L498 0H387L394 33Q320 -10 260 -10Q163 -10 97 58T30 226Q30 347 108 432T299 517Q405 517 468 441L481 507ZM439 274Q439 332 403 371T312 411Q243 411 195 359T147 232Q147 173 184 134T280
95Q347 95 393 147T439 274Z" />
<glyph unicode="b" glyph-name="b" horiz-adv-x="606" d="M7 0L136 667H253L216 479Q281 517 343 517Q443 517 509 449T576 277Q576 154 496 72T294 -10Q190 -10 127 50L117 0H7ZM459 272Q459 333 422 372T326 411Q258 411 213 359T168 227Q168 168 204 132T299
95Q365 95 412 147T459 272Z" />
<glyph unicode="c" glyph-name="c" horiz-adv-x="557" d="M275 95Q350 95 400 171H526Q502 106 465 68T384 11Q334 -10 272 -10Q162 -10 97 54T32 228Q32 350 111 433T307 517Q399 517 461 466T540 324H420Q389 411 303 411Q238 411 194 360T149 234Q149 173 184
134T275 95Z" />
<glyph unicode="d" glyph-name="d" horiz-adv-x="604" d="M471 442L515 667H631L502 0H391L398 37Q338 -10 263 -10Q165 -10 99 59T32 231Q32 351 111 434T306 517Q411 517 471 442ZM282 95Q350 95 394 145T439 271Q439 333 403 372T309 411Q243 411 196 359T149
233Q149 173 186 134T282 95Z" />
<glyph unicode="e" glyph-name="e" horiz-adv-x="599" d="M286 95Q359 95 408 155H544Q514 78 445 34T285 -10Q174 -10 103 58T31 232Q31 354 112 435T317 517Q427 517 498 449T569 275Q569 254 562 211H147Q152 160 191 128T286 95ZM160 300H452Q446 351 410
381T318 411Q262 411 220 382T160 300Z" />
<glyph unicode="f" glyph-name="f" horiz-adv-x="306" d="M247 507H331L312 410H228L149 0H32L112 410H40L59 507H130Q143 571 157 599T200 647Q247 679 325 679Q357 679 385 673L365 570Q349 573 331 573Q291 573 273 559T247 507Z" />
<glyph unicode="g" glyph-name="g" horiz-adv-x="605" d="M490 507H601L519 87Q501 -4 487 -40T440 -105Q367 -171 251 -171Q155 -171 90 -126T15 -5H129Q167 -66 256 -66Q352 -66 386 7Q394 25 404 62Q345 12 268 12Q167 12 101 78T35 246Q35 359 112 438T301
517Q409 517 477 438L490 507ZM283 117Q345 117 389 160T438 267Q438 267 438 281Q438 337 402 374T309 411Q246 411 199 363T152 249Q152 193 189 155T283 117Z" />
<glyph unicode="h" glyph-name="h" horiz-adv-x="551" d="M7 0L136 667H253L213 461Q267 517 355 517Q427 517 470 473T514 357Q514 322 502 260L452 0H335L386 260Q396 311 396 329Q396 366 373 388T310 411Q258 411 221 371Q189 336 173 254L123 0H7Z" />
<glyph unicode="i" glyph-name="i" horiz-adv-x="226" d="M7 0L105 507H222L123 0H7ZM136 667H253L232 561H116L136 667Z" />
<glyph unicode="j" glyph-name="j" horiz-adv-x="228" d="M105 507H222L117 -44Q107 -108 61 -143T-59 -178Q-85 -178 -110 -172L-89 -65Q-70 -70 -59 -70Q-6 -70 7 0L14 37L105 507ZM136 667H253L232 561H116L136 667Z" />
<glyph unicode="k" glyph-name="k" horiz-adv-x="499" d="M136 667H253L178 282L381 507H525L297 259L457 0H325L174 259L123 0H7L136 667Z" />
<glyph unicode="l" glyph-name="l" horiz-adv-x="226" d="M136 667H253L123 0H7L136 667Z" />
<glyph unicode="m" glyph-name="m" horiz-adv-x="813" d="M7 0L105 507H216L207 461Q253 495 278 506T338 517Q428 517 464 444Q533 517 612 517Q653 517 692 498T752 447Q777 410 777 355Q777 327 766 271L713 0H597L649 271Q657 313 657 334Q657 411 585 411Q527
411 499 356Q483 324 469 254L419 0H303L352 254Q364 316 364 339Q364 371 344 391T291 411Q238 411 209 366Q189 335 173 254L123 0H7Z" />
<glyph unicode="n" glyph-name="n" horiz-adv-x="551" d="M7 0L105 507H216L206 457Q264 517 354 517Q427 517 471 475T515 361Q515 341 509 295Q509 294 499 245L451 0H335L396 305Q399 318 399 328Q399 366 376 388T313 411Q245 411 208 353Q185 317 171 245L123 0H7Z" />
<glyph unicode="o" glyph-name="o" horiz-adv-x="605" d="M321 517Q435 517 505 450T575 272Q575 152 493 71T289 -10Q176 -10 104 57T32 232Q32 353 115 435T321 517ZM291 95Q358 95 406 142T458 261Q459 277 459 271Q459 332 419 371T317 411Q247 411 198 360T149
235Q149 174 189 135T291 95Z" />
<glyph unicode="p" glyph-name="p" horiz-adv-x="604" d="M-25 -163L105 507H216L208 465Q268 517 347 517Q441 517 509 448T577 281Q577 157 495 74T291 -10Q200 -10 135 61L92 -163H-25ZM299 95Q368 95 416 150Q461 203 461 273Q461 334 424 372T327 411Q259
411 214 359T168 228Q168 171 205 133T299 95Z" />
<glyph unicode="q" glyph-name="q" horiz-adv-x="605" d="M475 429L490 507H601L471 -163H354L391 28Q342 -10 269 -10Q166 -10 99 58T32 230Q32 349 111 433T304 517Q415 517 475 429ZM280 95Q343 95 388 139T442 255Q442 259 443 267Q443 274 443 278Q443 336
406 373T311 411Q245 411 197 359T148 234Q148 174 186 135T280 95Z" />
<glyph unicode="r" glyph-name="r" horiz-adv-x="331" d="M7 0L105 507H216L201 430Q224 469 267 494T353 519Q357 519 375 517L352 400H336Q249 400 210 349Q186 317 170 238L123 0H7Z" />
<glyph unicode="s" glyph-name="s" horiz-adv-x="400" d="M5 132Q5 142 8 166H125Q122 159 122 149Q122 95 180 95Q205 95 221 109T237 144Q237 180 191 203L159 219Q50 273 50 359Q50 428 98 472T221 517Q288 517 333 480T378 386Q378 373 376 361H258Q260 371
260 372Q260 411 214 411Q167 411 167 369Q167 339 220 310Q286 274 311 252Q353 214 353 154Q353 83 303 37T175 -10Q102 -10 54 30T5 132Z" />
<glyph unicode="t" glyph-name="t" horiz-adv-x="281" d="M124 507L155 667H272L240 507H313L294 410H222L142 0H25L105 410H33L52 507H124Z" />
<glyph unicode="u" glyph-name="u" horiz-adv-x="551" d="M57 275L102 507H219L164 233Q156 199 156 175Q156 139 179 117T242 95Q311 95 346 154Q368 192 383 267L430 507H547L448 0H337L347 48L338 42Q294 13 268 2Q237 -10 199 -10Q127 -10 83 32T39 144Q39
180 44 208Q47 226 57 275Z" />
<glyph unicode="v" glyph-name="v" horiz-adv-x="499" d="M140 0L46 507H168L233 147L428 507H554L274 0H140Z" />
<glyph unicode="w" glyph-name="w" horiz-adv-x="709" d="M96 0L54 507H167L184 138L344 507H459L480 138L640 507H756L516 0H394L371 352L216 0H96Z" />
<glyph unicode="x" glyph-name="x" horiz-adv-x="494" d="M174 268L44 507H182L261 343L394 507H538L319 257L454 0H313L229 178L90 0H-55L174 268Z" />
<glyph unicode="y" glyph-name="y" horiz-adv-x="505" d="M140 59L47 507H170L232 185L428 507H560L139 -160H4L140 59Z" />
<glyph unicode="z" glyph-name="z" horiz-adv-x="426" d="M59 401L79 507H441L421 407L140 105H385L364 0H-31L-9 109L273 401H59Z" />
<glyph unicode="{" glyph-name="braceleft" horiz-adv-x="500" d="M309 363Q299 314 282 289T225 242Q267 215 267 167Q267 147 262 121L231 -41Q229 -63 229 -67Q229 -106 304 -106H316L299 -190L274 -191Q274 -191 250 -191Q128 -191 128 -97Q128 -76 134 -45L165
116Q169 137 169 153Q169 196 126 206L142 286Q200 299 214 369L247 537Q261 611 302 644T420 677Q423 677 430 677Q438 676 443 676H468L451 592H443Q388 592 368 577T338 512L309 363Z" />
<glyph unicode="|" glyph-name="bar" horiz-adv-x="500" d="M202 -250V750H299V-250H202Z" />
<glyph unicode="}" glyph-name="braceright" horiz-adv-x="500" d="M205 123Q215 173 232 197T289 243Q247 271 247 318Q247 339 252 365L283 527Q286 544 286 553Q286 592 210 592H199L215 676H264Q386 676 386 583Q386 556 381 531L349 370Q345 350 345 332Q345
290 388 280L372 200Q352 195 338 185Q309 165 300 116L268 -51Q254 -125 213 -158T93 -191Q72 -191 72 -191L47 -190L63 -106H72Q127 -106 147 -91T176 -27L205 123Z" />
<glyph unicode="~" glyph-name="asciitilde" horiz-adv-x="667" d="M306 640Q262 640 226 573L171 609Q200 670 220 692Q258 734 314 734Q349 734 423 703Q490 675 515 675Q562 675 598 736L654 703Q618 626 574 601Q541 582 503 582Q472 582 413 606L361 627Q329
640 306 640Z" />
</font>
</defs>
</svg>
