<?xml version="1.0" standalone="no"?> <!DOCTYPE svg PUBLIC "-//W3C//DTD SVG 1.0//EN" "http://www.w3.org/TR/2001/REC-SVG-20010904/DTD/svg10.dtd" > <svg xmlns="http://www.w3.org/2000/svg" width="100%" height="100%">
<defs >
<font id="AVANGMIO" horiz-adv-x="445" ><font-face
    font-family="AvantGardeMdITCTT"
    units-per-em="1000"
    panose-1="0 0 11 0 0 0 0 0 0 0"
    ascent="910"
    descent="-250"
    alphabetic="0" />
<missing-glyph horiz-adv-x="500" d="M63 0V758H438V0H63ZM125 63H375V696H125V63Z" />
<glyph unicode=" " glyph-name="space" horiz-adv-x="250" />
<glyph unicode="!" glyph-name="exclam" horiz-adv-x="239" d="M58 166L155 667H247L150 166H58ZM25 0L46 107H138L117 0H25Z" />
<glyph unicode="&quot;" glyph-name="quotedbl" horiz-adv-x="349" d="M209 667L193 399H129L114 667H209ZM362 667L346 399H283L267 667H362Z" />
<glyph unicode="#" glyph-name="numbersign" horiz-adv-x="600" d="M453 279H561L534 201H426L355 0H266L337 201H214L144 0H56L126 201H17L44 279H154L196 401H87L114 479H223L289 667H377L311 479H434L499 667H588L523 479H629L602 401H495L453 279ZM364 279L406
401H284L242 279H364Z" />
<glyph unicode="$" glyph-name="dollar" horiz-adv-x="500" d="M266 662L290 784H379L354 657Q402 644 433 604T465 513Q465 507 462 483H375Q377 499 377 502Q377 539 354 560T292 582Q250 582 223 557T196 492Q196 441 253 411L291 391Q426 320 426 209Q426
132 378 77T253 12L228 -116H138L164 18Q104 34 69 79T34 185Q34 205 38 221H126Q123 202 123 194Q123 150 152 123T229 95Q274 95 303 124T333 199Q333 237 312 261T236 313Q103 379 103 482Q103 553 148 603T266 662Z" />
<glyph unicode="%" glyph-name="percent" horiz-adv-x="795" d="M167 0L591 667H664L238 0H167ZM84 500Q84 575 134 626T259 678Q326 678 369 636T412 529Q412 454 362 402T240 350Q172 350 128 392T84 500ZM418 135Q418 211 468 261T592 312Q659 312 701 271T744
166Q744 91 695 40T572 -12Q505 -12 462 29T418 135ZM327 524Q327 557 308 577T256 598Q221 598 197 571T172 505Q172 472 192 451T243 429Q278 429 302 456T327 524ZM587 234Q581 234 581 234Q548 232 525 205T502 139Q502 107 523 86T575 65Q609 65 633 92T658
158Q658 191 638 212T587 234Z" />
<glyph unicode="&amp;" glyph-name="ampersand" horiz-adv-x="655" d="M408 266L510 435H618L473 196L604 56L532 -10L417 113Q330 -12 209 -12Q127 -12 74 39T20 169Q20 265 95 332Q122 356 171 379Q118 443 118 505Q118 580 171 629T305 678Q376 678 420 636T465
526Q465 409 328 351L408 266ZM218 505Q218 459 270 415Q315 431 343 461T371 525Q371 553 351 571T299 589Q264 589 241 566T218 505ZM352 184L235 306Q122 255 122 172Q122 132 148 106T215 79Q253 79 284 102T352 184Z" />
<glyph unicode="&apos;" glyph-name="quotesingle" horiz-adv-x="196" d="M209 667L193 399H129L114 667H209Z" />
<glyph unicode="(" glyph-name="parenleft" horiz-adv-x="319" d="M299 656T384 687L364 581Q260 544 192 428T123 171Q123 63 167 -11Q188 -46 234 -86L215 -187Q127 -131 77 -34T27 179Q27 335 110 469Q155 542 227 599Z" />
<glyph unicode=")" glyph-name="parenright" horiz-adv-x="319" d="M22 -156T-64 -187L-44 -81Q60 -43 129 73T198 329Q198 438 153 511Q130 548 86 586L106 687Q194 631 243 534T293 320Q293 163 211 31Q167 -39 95 -97Z" />
<glyph unicode="*" glyph-name="asterisk" horiz-adv-x="500" d="M165 608L277 544L300 672L362 659L336 532L464 550L472 487L343 474L400 357L342 330L289 449L196 359L153 405L249 492L134 553L165 608Z" />
<glyph unicode="+" glyph-name="plus" horiz-adv-x="500" d="M50 295V375H224V542H310V375H484V295H310V128H224V295H50Z" />
<glyph unicode="," glyph-name="comma" horiz-adv-x="217" d="M12 0L33 107H130L107 -14Q87 -117 1 -117H-11L0 -62Q42 -61 48 0H12Z" />
<glyph unicode="-" glyph-name="hyphen" horiz-adv-x="230" d="M-5 222L9 295H239L225 222H-5Z" />
<glyph unicode="." glyph-name="period" horiz-adv-x="217" d="M12 0L33 107H130L109 0H12Z" />
<glyph unicode="/" glyph-name="slash" horiz-adv-x="460" d="M415 667H495L-25 -167H-105L415 667Z" />
<glyph unicode="0" glyph-name="zero" horiz-adv-x="500" d="M28 179Q28 217 38 269L68 425Q91 543 136 602Q195 679 301 679Q389 679 448 627T508 497Q508 457 498 406L464 233Q444 133 409 79Q350 -12 229 -12Q140 -12 84 41T28 179ZM338 137Q359 174 374 253L404
406Q413 452 413 480Q413 530 382 561T303 593Q193 593 161 425L131 269Q122 222 122 181Q122 134 152 104T230 73Q303 73 338 137Z" />
<glyph unicode="1" glyph-name="one" horiz-adv-x="500" d="M64 383L331 667H439L309 0H216L320 535L128 324L64 383Z" />
<glyph unicode="2" glyph-name="two" horiz-adv-x="500" d="M146 85H440L423 0H-8L9 85L279 318Q369 396 390 444Q402 472 402 499Q402 540 376 566T307 593Q194 593 171 442H78Q93 554 153 616T305 679Q388 679 441 629T495 502Q495 384 347 257L146 85Z" />
<glyph unicode="3" glyph-name="three" horiz-adv-x="500" d="M25 185Q25 185 26 191Q26 195 26 199H119Q118 197 118 192T117 177Q117 132 150 103T234 73Q288 73 325 111T362 204Q362 258 325 290T225 322H205L222 408Q233 407 245 407Q301 407 337 436T373
512Q373 548 349 570T287 593Q205 593 185 500H84Q92 579 147 629T281 679Q363 679 415 636T467 523Q467 434 403 389Q376 370 332 363Q396 346 426 303T456 207Q456 113 392 51T232 -12Q142 -12 83 38T24 163Q24 171 25 185Z" />
<glyph unicode="4" glyph-name="four" horiz-adv-x="500" d="M488 667L399 210H465L448 125H383L359 0H265L289 125H-7L9 210L372 667H488ZM114 210H306L367 525L114 210Z" />
<glyph unicode="5" glyph-name="five" horiz-adv-x="500" d="M168 667H484L467 581H232L174 426Q218 457 273 457Q356 457 408 399T461 246Q461 135 395 62T227 -12Q138 -12 77 42T16 175Q16 182 19 203H108Q111 143 142 108T226 73Q285 73 326 121T368 238Q368
296 333 333T244 371Q174 371 128 307L44 333L168 667Z" />
<glyph unicode="6" glyph-name="six" horiz-adv-x="500" d="M153 462L342 667H464L261 450Q270 453 289 453Q368 453 420 395T472 247Q472 138 403 63T233 -12Q140 -12 81 48T21 202Q21 277 64 349Q92 396 153 462ZM236 73Q295 73 336 123T378 244Q378 298 344
333T258 368Q198 368 156 320T114 203Q114 145 148 109T236 73Z" />
<glyph unicode="7" glyph-name="seven" horiz-adv-x="500" d="M117 581L134 667H535L518 581L158 0H47L415 581H117Z" />
<glyph unicode="8" glyph-name="eight" horiz-adv-x="500" d="M432 400Q406 377 362 366Q420 341 444 307T468 215Q468 118 399 53T227 -12Q134 -12 76 41T17 178Q17 251 57 301T170 366Q95 397 95 482Q95 564 155 621T301 679Q380 679 431 634T483 519Q483 445
432 400ZM282 406Q325 406 355 435T389 507Q389 507 389 513Q389 548 364 570T298 593Q253 593 221 563T189 489Q189 453 215 430T282 406ZM233 73Q289 73 330 110T375 201Q375 201 375 209Q375 258 341 290T253 322Q195 322 153 282T110 186Q110 136 144 105T233
73Z" />
<glyph unicode="9" glyph-name="nine" horiz-adv-x="500" d="M390 213L197 0H71L275 213H239Q163 213 112 273T60 420Q60 530 129 604T302 679Q396 679 455 620T515 466Q515 394 476 325Q451 280 390 213ZM297 593Q238 593 198 548T154 433Q154 433 154 425Q154
367 188 330T277 293Q338 293 379 341T421 461Q421 520 387 556T297 593Z" />
<glyph unicode=":" glyph-name="colon" horiz-adv-x="217" d="M12 0L33 107H130L109 0H12ZM89 398L110 505H207L187 398H89Z" />
<glyph unicode=";" glyph-name="semicolon" horiz-adv-x="217" d="M12 0L33 107H130L107 -14Q87 -117 1 -117H-11L0 -62Q42 -61 48 0H12ZM89 398L110 505H207L187 398H89Z" />
<glyph unicode="&lt;" glyph-name="less" horiz-adv-x="500" d="M30 368L463 575V489L122 331L462 172L463 87L30 294V368Z" />
<glyph unicode="=" glyph-name="equal" horiz-adv-x="500" d="M52 382V458H485V382H52ZM52 224V301H485V224H52Z" />
<glyph unicode="&gt;" glyph-name="greater" horiz-adv-x="500" d="M503 294L70 87V173L411 331L70 490V575L503 368V294Z" />
<glyph unicode="?" glyph-name="question" horiz-adv-x="459" d="M122 0L142 107H240L219 0H122ZM337 301Q290 268 273 242T246 166H150Q164 252 202 302Q223 329 287 373Q376 434 376 496Q376 536 346 562T270 589Q183 589 156 476H58Q80 581 132 627Q189 678
276 678Q362 678 417 629T473 504Q473 433 428 378Q404 349 337 301Z" />
<glyph unicode="@" glyph-name="at" horiz-adv-x="733" d="M513 434L535 491H596L517 286Q500 242 500 229Q500 198 527 198Q552 198 583 225T637 295Q672 360 672 430Q672 516 613 568T456 620Q316 620 210 515T104 270Q104 163 168 104T347 44Q459 44 560 86L565
30Q460 -12 337 -12Q201 -12 122 61T42 261Q42 425 169 550T464 676Q583 676 655 611T728 439Q728 368 696 300T609 186Q562 147 513 147Q487 147 470 162T452 201V210Q394 141 314 141Q263 141 232 174T201 263Q201 367 288 447Q349 503 420 503Q497 503 513 434ZM479
374Q479 379 478 381Q475 440 415 440Q355 440 308 377Q272 328 272 277Q272 243 290 224T341 204Q404 204 446 272Q479 325 479 374Z" />
<glyph unicode="A" glyph-name="A" horiz-adv-x="619" d="M438 191H162L60 0H-48L323 667H437L571 0H471L438 191ZM366 578L208 281H422L366 578Z" />
<glyph unicode="B" glyph-name="B" horiz-adv-x="508" d="M226 0H19L148 667H271Q384 667 433 633Q497 588 497 508Q497 449 462 406T368 348Q464 314 464 205Q464 102 385 43Q327 0 226 0ZM175 305L133 89H213Q367 89 367 208Q367 305 255 305H175ZM228 577L193
395H279Q334 395 367 423T400 499Q400 577 285 577H228Z" />
<glyph unicode="C" glyph-name="C" horiz-adv-x="717" d="M506 124Q538 147 570 189H682Q644 100 554 44T359 -12Q221 -12 135 73T48 295Q48 458 153 568T414 679Q526 679 609 615T716 447H611Q590 514 536 551T407 589Q298 589 222 505T146 299Q146 199 204 138T358
77Q441 77 506 124Z" />
<glyph unicode="D" glyph-name="D" horiz-adv-x="659" d="M248 0H19L148 667H304Q473 667 555 595Q645 516 645 378Q645 293 613 217T524 90Q422 0 248 0ZM228 577L133 89H236Q381 89 451 150Q495 189 520 243Q548 305 548 377Q548 487 475 537Q436 564 384 572Q353
577 285 577H228Z" />
<glyph unicode="E" glyph-name="E" horiz-adv-x="456" d="M422 290H173L134 89H383L365 0H19L148 667H490L473 577H229L190 379H439L422 290Z" />
<glyph unicode="F" glyph-name="F" horiz-adv-x="413" d="M395 290H172L116 0H19L148 667H468L451 577H228L190 379H412L395 290Z" />
<glyph unicode="G" glyph-name="G" horiz-adv-x="750" d="M604 243H297L314 333H733Q717 181 614 85T364 -12Q224 -12 137 73T49 294Q49 457 155 568T420 679Q536 679 621 616T729 453H623Q571 589 414 589Q301 589 224 505T146 297Q146 197 205 137T363 77Q446
77 510 121T604 243Z" />
<glyph unicode="H" glyph-name="H" horiz-adv-x="594" d="M439 290H173L116 0H19L148 667H246L190 379H456L512 667H609L480 0H382L439 290Z" />
<glyph unicode="I" glyph-name="I" horiz-adv-x="231" d="M116 0H19L148 667H246L116 0Z" />
<glyph unicode="J" glyph-name="J" horiz-adv-x="431" d="M-17 150V161H85Q84 157 84 151Q84 77 160 77Q208 77 230 108T270 231L355 667H453L353 155Q320 -12 160 -12Q79 -12 31 32T-17 150Z" />
<glyph unicode="K" glyph-name="K" horiz-adv-x="550" d="M116 0H19L148 667H246L116 0ZM604 667L301 348L502 0H391L186 356L484 667H604Z" />
<glyph unicode="L" glyph-name="L" horiz-adv-x="412" d="M246 667L133 89H365L347 0H19L148 667H246Z" />
<glyph unicode="M" glyph-name="M" horiz-adv-x="805" d="M653 667H820L691 0H593L704 569L405 0H304L227 569L116 0H19L148 667H304L377 130L653 667Z" />
<glyph unicode="N" glyph-name="N" horiz-adv-x="667" d="M584 667H682L552 0H419L223 551L116 0H19L148 667H283L478 119L584 667Z" />
<glyph unicode="O" glyph-name="O" horiz-adv-x="759" d="M746 372Q746 208 638 98T368 -12Q231 -12 140 76T49 297Q49 458 157 568T426 679Q566 679 656 593T746 372ZM146 304Q146 204 209 141T371 77Q488 77 568 161T648 368Q648 467 586 528T422 589Q308 589
227 506T146 304Z" />
<glyph unicode="P" glyph-name="P" horiz-adv-x="510" d="M253 259H166L116 0H19L148 667H293Q408 667 466 621Q530 570 530 482Q530 372 451 311Q413 282 370 271T253 259ZM228 577L184 347H262Q335 347 374 370Q433 404 433 472Q433 527 398 552T284 577H228Z" />
<glyph unicode="Q" glyph-name="Q" horiz-adv-x="761" d="M721 88Q731 88 741 89L723 0H701Q635 0 565 42Q466 -12 367 -12Q226 -12 137 73T48 295Q48 459 156 569T425 679Q566 679 655 593T745 371Q745 263 695 177Q675 143 642 106Q674 88 721 88ZM370 77Q438
77 488 106Q425 165 360 184Q323 195 284 195Q233 195 184 175Q242 77 370 77ZM553 169L563 161Q647 242 647 363Q647 463 583 526T418 589Q308 589 227 507T145 313Q145 283 153 258Q234 284 295 284Q403 284 486 224Q506 207 553 169Z" />
<glyph unicode="R" glyph-name="R" horiz-adv-x="559" d="M501 316Q445 258 333 250L475 0H367L188 327H257Q403 327 447 400Q465 430 465 465Q465 531 409 560Q376 577 303 577H228L116 0H19L148 667H303Q431 667 492 621Q562 568 562 474Q562 379 501 316Z" />
<glyph unicode="S" glyph-name="S" horiz-adv-x="490" d="M14 173Q14 183 17 210H116Q111 191 111 178Q111 135 143 106T224 77Q275 77 310 108T345 186Q345 222 322 248T240 303Q174 335 144 360T97 420Q82 451 82 485Q82 568 140 623T287 679Q369 679 421 633T473
514Q473 515 471 487H371Q375 502 375 510Q375 544 348 566T280 589Q237 589 208 563T179 498Q179 466 199 445T271 398Q384 344 418 287Q443 246 443 199Q443 108 380 48T219 -12Q130 -12 72 40T14 173Z" />
<glyph unicode="T" glyph-name="T" horiz-adv-x="405" d="M459 577H318L206 0H109L221 577H75L92 667H476L459 577Z" />
<glyph unicode="U" glyph-name="U" horiz-adv-x="554" d="M395 239L478 667H576L485 198Q465 94 414 46Q353 -12 251 -12Q162 -12 106 35T50 157Q50 198 60 249L142 667H239L158 249Q149 203 149 177Q149 130 177 104T256 77Q323 77 356 125Q379 159 395 239Z" />
<glyph unicode="V" glyph-name="V" horiz-adv-x="578" d="M77 667H174L262 115L561 667H665L299 0H185L77 667Z" />
<glyph unicode="W" glyph-name="W" horiz-adv-x="858" d="M95 667H192L220 141L448 667H570L583 141L825 667H927L618 0H499L486 538L250 0H136L95 667Z" />
<glyph unicode="X" glyph-name="X" horiz-adv-x="578" d="M651 667L365 334L530 0H422L297 269L68 0H-48L249 342L89 667H198L317 408L536 667H651Z" />
<glyph unicode="Y" glyph-name="Y" horiz-adv-x="521" d="M496 667H603L302 220L259 0H162L205 220L82 667H180L269 331L496 667Z" />
<glyph unicode="Z" glyph-name="Z" horiz-adv-x="484" d="M103 89H430L413 0H-25L-5 99L401 577H88L105 667H530L511 569L103 89Z" />
<glyph unicode="[" glyph-name="bracketleft" horiz-adv-x="319" d="M284 685T331 687L311 585Q260 579 236 549T196 443L129 103Q117 42 117 9Q117 -53 181 -84L161 -187Q26 -135 26 7Q26 43 39 110L106 453Q128 567 170 612Q200 644 242 664Z" />
<glyph unicode="\" glyph-name="backslash" horiz-adv-x="500" d="M43 750H128L471 -83H386L43 750Z" />
<glyph unicode="]" glyph-name="bracketright" horiz-adv-x="319" d="M38 -185T-10 -187L9 -85Q61 -79 85 -49T125 57L191 397Q203 459 203 491Q203 553 139 584L159 687Q224 662 259 611T295 493Q295 464 281 390L215 47Q193 -67 151 -112Q121 -144 80 -164Z" />
<glyph unicode="^" glyph-name="asciicircum" horiz-adv-x="500" d="M271 600L134 358H42L215 669H328L501 358H408L271 600Z" />
<glyph unicode="_" glyph-name="underscore" horiz-adv-x="500" d="M-68 -140V-62H432V-140H-68Z" />
<glyph unicode="`" glyph-name="grave" horiz-adv-x="500" d="M355 547L189 668L231 730L396 606L355 547Z" />
<glyph unicode="a" glyph-name="a" horiz-adv-x="609" d="M491 428L505 505H599L501 0H407L417 51Q351 -12 264 -12Q160 -12 96 54T32 226Q32 349 111 433T308 517Q428 517 491 428ZM125 230Q125 162 168 118T277 73Q355 73 407 131T459 277Q459 342 415 386T305
431Q228 431 177 373T125 230Z" />
<glyph unicode="b" glyph-name="b" horiz-adv-x="605" d="M105 0H12L142 667H235L197 473Q264 517 341 517Q443 517 509 451T575 282Q575 156 496 72T297 -12Q184 -12 120 76L105 0ZM150 228Q150 162 194 118T304 73Q378 73 429 132T481 276Q481 344 439 387T328
431Q251 431 201 374T150 228Z" />
<glyph unicode="c" glyph-name="c" horiz-adv-x="587" d="M280 73Q387 73 444 171H547Q529 95 449 38Q378 -12 281 -12Q171 -12 101 53T31 221Q31 348 113 432T319 517Q415 517 483 463T564 322H463Q431 432 315 432Q233 432 179 374T125 229Q125 160 168 117T280 73Z" />
<glyph unicode="d" glyph-name="d" horiz-adv-x="607" d="M489 428L535 667H629L499 0H406L415 49Q342 -12 265 -12Q164 -12 98 55T32 227Q32 351 111 434T310 517Q427 517 489 428ZM125 231Q125 162 167 118T277 73Q355 73 406 130T457 276Q457 343 414 387T303
431Q228 431 177 373T125 231Z" />
<glyph unicode="e" glyph-name="e" horiz-adv-x="601" d="M564 231L563 213H133Q133 157 166 122Q213 73 290 73Q397 73 449 167H554Q537 124 522 102T474 54Q394 -12 286 -12Q174 -12 104 54T34 227Q34 354 115 435T322 517Q428 517 498 453T568 291Q568 303
564 231ZM141 291H474Q474 351 444 383Q399 431 318 431Q239 431 188 381Q157 351 141 291Z" />
<glyph unicode="f" glyph-name="f" horiz-adv-x="291" d="M302 417H206L125 0H32L113 417H31L48 505H130Q132 512 134 521Q146 576 156 597T190 637Q234 671 298 671Q309 671 337 669L351 668L334 582Q320 585 303 585Q267 585 251 569T226 515L223 505H319L302 417Z" />
<glyph unicode="g" glyph-name="g" horiz-adv-x="606" d="M254 -179Q156 -179 89 -130T19 -6H119Q141 -93 251 -93Q355 -93 395 -13Q404 4 413 42Q359 -12 269 -12Q163 -12 98 54T32 226Q32 351 111 434T308 517Q427 517 489 431L503 505H596L509 56Q484 -72 426
-122Q360 -179 254 -179ZM125 229Q125 162 168 118T277 73Q354 73 406 130T459 273Q459 343 416 387T304 431Q228 431 177 373T125 229Z" />
<glyph unicode="h" glyph-name="h" horiz-adv-x="553" d="M12 0L142 667H235L194 454Q258 517 334 517Q414 517 461 471T508 345Q508 312 494 239L448 0H355L406 263Q415 309 415 332Q415 378 388 404T314 431Q189 431 154 251L105 0H12Z" />
<glyph unicode="i" glyph-name="i" horiz-adv-x="213" d="M142 667H235L214 560H121L142 667ZM12 0L110 505H203L105 0H12Z" />
<glyph unicode="j" glyph-name="j" horiz-adv-x="213" d="M142 667H235L214 560H121L142 667ZM14 11L110 505H203L99 -33Q83 -117 39 -147T-70 -178Q-87 -178 -108 -174L-92 -91Q-84 -92 -74 -92Q-33 -92 -16 -72T14 11Z" />
<glyph unicode="k" glyph-name="k" horiz-adv-x="473" d="M12 0L142 667H235L105 0H12ZM485 505L266 263L423 0H316L159 271L371 505H485Z" />
<glyph unicode="l" glyph-name="l" horiz-adv-x="213" d="M105 0H12L142 667H235L105 0Z" />
<glyph unicode="m" glyph-name="m" horiz-adv-x="807" d="M12 0L110 505H203L195 462Q256 517 315 517Q412 517 447 429Q500 517 596 517Q670 517 716 471T763 351Q763 313 755 272L702 0H609L658 254Q669 311 669 336Q669 380 647 405T586 431Q533 431 499 384Q473
347 458 272L405 0H312L365 272Q374 318 374 337Q374 380 351 405T287 431Q222 431 190 370Q171 334 155 254L105 0H12Z" />
<glyph unicode="n" glyph-name="n" horiz-adv-x="553" d="M12 0L110 505H203L194 456Q241 492 270 504T340 517Q412 517 460 469T508 349Q508 309 496 247L448 0H355L403 247Q414 304 414 332Q414 378 387 404T314 431Q247 431 204 377Q170 334 153 247L105 0H12Z" />
<glyph unicode="o" glyph-name="o" horiz-adv-x="598" d="M569 280Q569 153 487 71T278 -12Q170 -12 101 55T32 226Q32 351 113 434T318 517Q427 517 498 450T569 280ZM126 230Q126 161 169 117T281 73Q364 73 419 129T475 271Q475 342 431 386T316 431Q234 431
180 374T126 230Z" />
<glyph unicode="p" glyph-name="p" horiz-adv-x="608" d="M-20 -167L110 505H204L194 456Q262 517 347 517Q450 517 514 451T578 278Q578 157 499 73T304 -12Q177 -12 123 89L73 -167H-20ZM485 271V274Q485 346 443 388T331 431Q255 431 204 374T152 232Q152 162
195 118T306 73Q380 73 432 131T485 271Z" />
<glyph unicode="q" glyph-name="q" horiz-adv-x="605" d="M488 435L502 505H596L465 -167H372L410 33Q347 -12 270 -12Q166 -12 99 54T32 224Q32 349 110 433T307 517Q421 517 488 435ZM125 231Q125 163 168 118T277 73Q354 73 406 130T458 273Q458 342 415 386T304
431Q228 431 177 373T125 231Z" />
<glyph unicode="r" glyph-name="r" horiz-adv-x="324" d="M12 0L110 505H197L184 437Q209 474 252 498T338 522Q346 522 365 519L347 427Q337 428 326 428Q252 428 206 384Q185 363 177 343T156 259L105 0H12Z" />
<glyph unicode="s" glyph-name="s" horiz-adv-x="416" d="M4 142Q4 152 8 165H107Q105 149 105 146Q105 114 128 94T189 73Q221 73 244 92T267 139Q267 164 252 179T185 220Q114 256 87 287T60 365Q60 431 107 474T227 517Q297 517 343 481T389 390Q389 384 386
367H287Q288 372 288 379Q288 402 269 416T221 431Q193 431 174 415T154 374Q154 352 168 338T224 304Q300 268 330 235T361 153Q361 82 310 35T182 -12Q107 -12 56 32T4 142Z" />
<glyph unicode="t" glyph-name="t" horiz-adv-x="273" d="M307 419H207L125 0H32L114 419H32L49 505H130L162 667H255L223 505H323L307 419Z" />
<glyph unicode="u" glyph-name="u" horiz-adv-x="556" d="M59 259L107 505H200L149 240Q140 193 140 173Q140 128 168 101T243 73Q281 73 316 94T370 149Q390 187 410 287L453 505H546L448 0H355L365 53Q311 -12 220 -12Q144 -12 96 34T48 154Q48 203 59 259Z" />
<glyph unicode="v" glyph-name="v" horiz-adv-x="456" d="M408 505H508L238 0H137L48 505H142L207 120L408 505Z" />
<glyph unicode="w" glyph-name="w" horiz-adv-x="703" d="M647 505H745L484 0H393L376 369L203 0H114L58 505H150L184 146L353 505H444L466 139L647 505Z" />
<glyph unicode="x" glyph-name="x" horiz-adv-x="473" d="M507 505L294 259L420 0H311L227 188L69 0H-43L179 259L55 505H167L244 328L391 505H507Z" />
<glyph unicode="y" glyph-name="y" horiz-adv-x="498" d="M550 505L149 -167H48L149 0L48 505H149L218 114L446 505H550Z" />
<glyph unicode="z" glyph-name="z" horiz-adv-x="396" d="M54 419L70 505H408L391 418L102 85H351L334 0H-28L-11 87L277 419H54Z" />
<glyph unicode="{" glyph-name="braceleft" horiz-adv-x="500" d="M304 362Q294 313 277 288T220 243Q263 217 263 169Q263 148 258 123L228 -29Q223 -54 223 -73Q223 -114 301 -114H308L294 -189L271 -190Q271 -190 254 -190Q133 -190 133 -97Q133 -74 139 -43L170
119Q175 145 175 157Q175 199 132 211L146 282Q205 296 219 367L252 539Q266 612 306 644T422 677H462L447 602Q388 602 367 586T335 519L304 362Z" />
<glyph unicode="|" glyph-name="bar" horiz-adv-x="500" d="M207 -250V750H294V-250H207Z" />
<glyph unicode="}" glyph-name="braceright" horiz-adv-x="500" d="M209 126Q219 175 236 200T292 244Q250 272 250 319Q250 339 255 364L285 517Q285 523 287 535Q290 555 290 561Q290 602 213 602H204L219 677H261Q380 677 380 585Q380 562 374 531L342 368Q338
348 338 331Q338 287 381 277L367 206Q308 190 294 120L261 -51Q247 -124 207 -157T90 -190Q73 -190 51 -189L65 -114Q125 -114 146 -99T178 -32L209 126Z" />
<glyph unicode="~" glyph-name="asciitilde" horiz-adv-x="667" d="M305 646Q258 646 222 577L172 609Q205 678 235 704T312 730Q349 730 422 698Q488 669 517 669Q565 669 603 732L654 702Q596 585 505 585Q471 585 418 608L365 631Q330 646 305 646Z" />
</font>
</defs>
</svg>
