<?xml version="1.0" standalone="no"?> <!DOCTYPE svg PUBLIC "-//W3C//DTD SVG 1.0//EN" "http://www.w3.org/TR/2001/REC-SVG-20010904/DTD/svg10.dtd" > <svg xmlns="http://www.w3.org/2000/svg" width="100%" height="100%">
<defs >
<font id="AVANGMI" horiz-adv-x="442" ><font-face
    font-family="AvantGardeMdITCTT"
    units-per-em="1000"
    panose-1="0 0 4 0 0 0 0 0 0 0"
    ascent="913"
    descent="-250"
    alphabetic="0" />
<missing-glyph horiz-adv-x="500" d="M63 0V750H438V0H63ZM125 63H375V688H125V63Z" />
<glyph unicode=" " glyph-name="space" horiz-adv-x="250" />
<glyph unicode="!" glyph-name="exclam" horiz-adv-x="240" d="M73 110H167V0H73V110ZM73 667H167V164H73V667Z" />
<glyph unicode="&quot;" glyph-name="quotedbl" horiz-adv-x="354" d="M149 667L132 399H66L49 667H149ZM305 667L288 399H222L205 667H305Z" />
<glyph unicode="#" glyph-name="numbersign" horiz-adv-x="600" d="M449 281H556L544 199H436L405 0H313L344 199H225L193 0H102L133 199H25L37 281H146L164 399H56L68 481H176L205 667H297L268 481H387L416 667H509L480 481H586L573 399H467L449 281ZM357 281L375
399H255L237 281H357Z" />
<glyph unicode="$" glyph-name="dollar" horiz-adv-x="500" d="M198 641V742H283V641Q407 620 416 485H332Q320 561 252 561Q215 561 192 538T168 476Q168 439 188 422T275 388Q360 366 395 314Q425 270 425 208Q425 140 388 92T283 26V-74H198V26Q133 41 94 85Q52
132 48 207H131Q135 160 163 133T235 106Q277 106 304 135T332 209Q332 250 306 273T217 313Q168 325 146 338T105 378Q75 422 75 476Q75 537 108 581T198 641Z" />
<glyph unicode="%" glyph-name="percent" horiz-adv-x="877" d="M208 680Q281 680 332 631T383 511Q383 440 332 390T208 339Q136 339 85 389T34 511Q34 581 85 630T208 680ZM668 328Q741 328 792 279T843 159Q843 88 792 38T668 -13Q596 -13 545 37T494 159Q494
229 545 278T668 328ZM606 667L329 0H271L550 667H606ZM208 408Q250 408 279 438T309 510Q309 552 280 581T208 611Q167 611 138 582T108 510Q108 468 137 438T208 408ZM668 56Q710 56 739 85T769 158Q769 200 740 229T668 259Q627 259 598 229T568 158Q568 115
597 86T668 56Z" />
<glyph unicode="&amp;" glyph-name="ampersand" horiz-adv-x="627" d="M483 410H591L479 190L613 52L548 -13L432 104Q393 47 353 21Q301 -13 238 -13Q152 -13 93 44T34 186Q34 250 69 302T162 376Q124 416 111 443T98 509Q98 582 147 631T267 680Q337 680 385
631T433 509Q433 403 321 349L409 262L483 410ZM230 439L253 416Q305 446 321 464T337 513Q337 543 317 563T266 584Q235 584 215 563T195 509Q195 474 230 439ZM367 171L226 309Q131 257 131 186Q131 142 161 112T238 82Q320 82 367 171Z" />
<glyph unicode="&apos;" glyph-name="quotesingle" horiz-adv-x="198" d="M149 667L132 399H66L49 667H149Z" />
<glyph unicode="(" glyph-name="parenleft" horiz-adv-x="326" d="M223 3Q249 -26 306 -70V-180Q182 -121 104 6Q34 120 34 253Q34 385 107 503T300 680V571Q207 492 171 423Q131 346 131 254Q131 106 223 3Z" />
<glyph unicode=")" glyph-name="parenright" horiz-adv-x="326" d="M102 497Q75 527 20 570V680Q142 622 222 494Q292 381 292 247Q292 114 218 -3T25 -180V-71Q119 8 155 77Q195 154 195 245Q195 391 102 497Z" />
<glyph unicode="*" glyph-name="asterisk" horiz-adv-x="500" d="M98 579L220 537L218 667H282L280 537L402 579L422 519L298 481L376 377L325 340L250 446L175 339L124 377L202 481L78 519L98 579Z" />
<glyph unicode="+" glyph-name="plus" horiz-adv-x="500" d="M33 293V377H205V542H295V377H467V293H295V128H205V293H33Z" />
<glyph unicode="," glyph-name="comma" horiz-adv-x="213" d="M60 110H153V10Q153 -96 60 -115V-59Q93 -45 93 -8V0H60V110Z" />
<glyph unicode="-" glyph-name="hyphen" horiz-adv-x="251" d="M251 303V210H0V303H251Z" />
<glyph unicode="." glyph-name="period" horiz-adv-x="213" d="M153 110V0H60V110H153Z" />
<glyph unicode="/" glyph-name="slash" horiz-adv-x="402" d="M-10 -167L274 667H356L71 -167H-10Z" />
<glyph unicode="0" glyph-name="zero" horiz-adv-x="500" d="M252 680Q344 680 405 617T466 460V214Q466 98 388 36Q326 -13 249 -13Q184 -13 132 21T51 115Q34 152 34 221V454Q34 553 95 616T252 680ZM251 595Q195 595 162 559T128 460V214Q128 148 161 110T252
72Q307 72 339 110T372 214V460Q372 522 340 558T251 595Z" />
<glyph unicode="1" glyph-name="one" horiz-adv-x="500" d="M126 667H318V0H225V581H126V667Z" />
<glyph unicode="2" glyph-name="two" horiz-adv-x="500" d="M457 85V0H39V78L302 345Q362 406 362 467Q362 520 329 557T248 595Q196 595 163 556T129 456Q129 444 130 439H36V446Q36 549 94 614T245 680Q332 680 394 617T456 464Q456 413 431 364Q412 327 363
276L178 85H457Z" />
<glyph unicode="3" glyph-name="three" horiz-adv-x="500" d="M236 -13Q147 -13 85 47T23 196H116Q118 139 152 106T241 72Q291 72 326 108T361 196Q361 247 325 281T236 315H202V409H234Q279 409 305 434T332 503Q332 541 306 568T242 595Q163 595 152 500H59Q63
580 115 630T245 680Q322 680 373 626T425 491Q425 451 413 425T364 365Q454 308 454 198Q454 110 391 49T236 -13Z" />
<glyph unicode="4" glyph-name="four" horiz-adv-x="500" d="M315 667H409V190H479V105H409V0H315V105H11V195L315 667ZM118 190H315V510L118 190Z" />
<glyph unicode="5" glyph-name="five" horiz-adv-x="500" d="M50 324L106 667H410V581H183L158 434Q198 460 251 460Q346 460 410 393T474 226Q474 124 409 56T246 -13Q154 -13 92 46T20 201H113Q124 141 160 107T247 72Q302 72 341 115T381 219Q381 287 342 331T243
375Q177 375 131 306L50 324Z" />
<glyph unicode="6" glyph-name="six" horiz-adv-x="500" d="M70 374L257 667H368L227 448Q251 452 266 452Q357 452 418 387T480 227Q480 125 414 56T251 -13Q156 -13 88 55T20 221Q20 296 70 374ZM253 367Q195 367 154 324T113 219Q113 158 153 115T251 72Q307
72 347 114T387 217Q387 279 348 323T253 367Z" />
<glyph unicode="7" glyph-name="seven" horiz-adv-x="500" d="M64 581V667H451V581L206 0H102L354 581H64Z" />
<glyph unicode="8" glyph-name="eight" horiz-adv-x="500" d="M431 497Q431 420 372 368Q461 307 461 199Q461 111 399 49T250 -13Q162 -13 101 47T39 196Q39 300 126 368Q71 423 71 497Q71 573 124 626T252 680Q325 680 378 626T431 497ZM250 411Q288 411 312
437T337 504Q337 542 312 568T251 595Q214 595 189 568T164 503Q164 464 189 438T250 411ZM249 72Q298 72 332 108T367 194Q367 244 333 279T250 315Q201 315 167 279T133 191Q133 142 167 107T249 72Z" />
<glyph unicode="9" glyph-name="nine" horiz-adv-x="500" d="M429 293L243 0H132L274 219Q249 215 235 215Q144 215 82 280T20 440Q20 542 86 611T249 680Q344 680 412 612T480 447Q480 373 429 293ZM248 301Q305 301 346 342T387 444V449Q387 509 347 552T249
595Q193 595 153 553T113 450Q113 388 152 345T248 301Z" />
<glyph unicode=":" glyph-name="colon" horiz-adv-x="213" d="M153 110V0H60V110H153ZM153 500V390H60V500H153Z" />
<glyph unicode=";" glyph-name="semicolon" horiz-adv-x="213" d="M60 110H153V10Q153 -96 60 -115V-59Q93 -45 93 -8V0H60V110ZM153 500V390H60V500H153Z" />
<glyph unicode="&lt;" glyph-name="less" horiz-adv-x="500" d="M33 370L467 578V489L129 331L466 173L467 84L33 293V370Z" />
<glyph unicode="=" glyph-name="equal" horiz-adv-x="500" d="M33 381V460H467V381H33ZM33 222V301H467V222H33Z" />
<glyph unicode="&gt;" glyph-name="greater" horiz-adv-x="500" d="M467 293L33 84V174L371 331L34 489L33 578L467 370V293Z" />
<glyph unicode="?" glyph-name="question" horiz-adv-x="450" d="M164 110H257V0H164V110ZM335 320Q297 287 281 256T257 171H164Q167 288 266 380Q322 432 322 474Q322 521 291 553T215 585Q122 585 108 477H13Q18 567 74 623T216 680Q298 680 357 621T416 478Q416
389 356 338L335 320Z" />
<glyph unicode="@" glyph-name="at" horiz-adv-x="733" d="M476 436L486 491H550L510 287Q504 256 504 242Q504 200 537 200Q576 200 608 256T640 381Q640 485 568 552T384 619Q262 619 179 535T95 329Q95 239 143 166T268 65Q323 45 387 45Q497 45 590 87L606
29Q510 -12 388 -12Q232 -12 133 84T33 330Q33 476 134 576T381 677Q517 677 607 593T697 382Q697 289 648 218T533 147Q504 147 484 164T459 210Q413 142 335 142Q274 142 234 187T194 301Q194 384 246 443T369 503Q445 503 476 436ZM350 206Q394 206 424 247T455
348Q455 388 434 412T377 437Q332 437 299 398T266 304Q266 260 289 233T350 206Z" />
<glyph unicode="A" glyph-name="A" horiz-adv-x="594" d="M341 667L594 0H491L417 197H177L103 0H0L253 667H341ZM212 286H383L298 540L212 286Z" />
<glyph unicode="B" glyph-name="B" horiz-adv-x="521" d="M266 0H67V667H240Q338 667 393 616T448 482Q448 409 388 356Q487 297 487 193Q487 102 421 47Q365 0 266 0ZM164 300V89H270Q323 89 356 118T390 194Q390 244 356 272T258 300H164ZM164 577V389H243Q351
389 351 482Q351 577 238 577H164Z" />
<glyph unicode="C" glyph-name="C" horiz-adv-x="707" d="M559 164H678Q631 80 551 34T375 -13Q235 -13 134 89T33 335Q33 479 133 579T376 680Q579 680 683 497H566Q485 591 378 591Q275 591 203 516T131 335Q131 230 203 153T376 76Q483 76 559 164Z" />
<glyph unicode="D" glyph-name="D" horiz-adv-x="657" d="M274 0H67V667H303Q441 667 527 578Q624 478 624 330Q624 189 540 97Q452 0 274 0ZM164 577V89H243Q377 89 446 145Q527 211 527 330Q527 437 456 510Q390 577 284 577H164Z" />
<glyph unicode="E" glyph-name="E" horiz-adv-x="469" d="M427 89V0H67V667H427V577H164V381H427V292H164V89H427Z" />
<glyph unicode="F" glyph-name="F" horiz-adv-x="430" d="M164 288V0H67V667H403V577H164V377H403V288H164Z" />
<glyph unicode="G" glyph-name="G" horiz-adv-x="750" d="M297 332H718Q716 184 618 86T374 -13Q232 -13 133 87T33 332Q33 478 132 579T373 680Q467 680 547 632T672 500H559Q475 591 377 591Q275 591 203 515T131 332Q131 228 204 152T378 76Q465 76 536 136Q580
173 608 243H297V332Z" />
<glyph unicode="H" glyph-name="H" horiz-adv-x="603" d="M536 667V0H439V290H164V0H67V667H164V379H439V667H536Z" />
<glyph unicode="I" glyph-name="I" horiz-adv-x="231" d="M164 667V0H67V667H164Z" />
<glyph unicode="J" glyph-name="J" horiz-adv-x="428" d="M271 667H368V171Q368 92 316 40T184 -13Q115 -13 63 28T0 133H100Q123 76 180 76Q220 76 245 105T271 180V667Z" />
<glyph unicode="K" glyph-name="K" horiz-adv-x="539" d="M278 336L539 0H419L164 336V0H67V667H164V336L419 667H539L278 336Z" />
<glyph unicode="L" glyph-name="L" horiz-adv-x="412" d="M395 89V0H67V667H164V89H395Z" />
<glyph unicode="M" glyph-name="M" horiz-adv-x="841" d="M774 667V0H677V563L450 0H391L164 563V0H67V667H220L420 156L621 667H774Z" />
<glyph unicode="N" glyph-name="N" horiz-adv-x="663" d="M597 667V0H496L164 515V0H67V667H173L499 159V667H597Z" />
<glyph unicode="O" glyph-name="O" horiz-adv-x="760" d="M380 680Q525 680 626 579T727 333Q727 190 626 89T380 -13Q236 -13 135 88T33 333Q33 478 134 579T380 680ZM380 76Q486 76 557 150T629 334Q629 442 557 516T380 591Q275 591 203 517T131 334Q131 225
203 151T380 76Z" />
<glyph unicode="P" glyph-name="P" horiz-adv-x="517" d="M260 263H164V0H67V667H299Q385 667 440 611T495 468Q495 385 443 329Q409 292 368 278T260 263ZM164 577V352H264Q326 352 361 383T397 468Q397 577 263 577H164Z" />
<glyph unicode="Q" glyph-name="Q" horiz-adv-x="753" d="M735 77V-13Q643 -12 567 38Q475 -13 375 -13Q233 -13 133 89T33 336Q33 481 132 580T376 680Q520 680 620 579T720 333Q720 216 638 100Q680 77 726 77H735ZM380 76Q439 76 481 106Q360 196 258 196Q212
196 180 180Q254 76 380 76ZM444 238Q509 200 559 159Q623 240 623 333Q623 440 551 515T378 591Q275 591 203 515T130 329Q130 299 140 265Q191 286 266 286Q362 286 444 238Z" />
<glyph unicode="R" glyph-name="R" horiz-adv-x="549" d="M321 248L508 0H386L164 310V0H67V667H273Q392 667 452 610T512 453Q512 337 428 284Q386 257 321 248ZM164 577V323H231Q415 323 415 453Q415 509 375 543T267 577H164Z" />
<glyph unicode="S" glyph-name="S" horiz-adv-x="460" d="M414 494H315Q312 538 287 564T225 591Q189 591 162 564T135 499Q135 460 158 440T244 401T337 366T390 316Q425 266 425 200Q425 109 366 48T219 -13Q129 -13 71 46T11 197H107Q119 76 220 76Q266 76
297 108T328 187Q328 258 245 286L221 294L193 303Q136 321 119 330T83 361Q38 411 38 484Q38 569 92 624T230 680Q308 680 359 629T414 494Z" />
<glyph unicode="T" glyph-name="T" horiz-adv-x="375" d="M237 577V0H139V577H11V667H364V577H237Z" />
<glyph unicode="U" glyph-name="U" horiz-adv-x="567" d="M410 667H507V204Q507 114 446 54Q377 -13 282 -13Q188 -13 124 49T60 204V667H157V217Q157 152 191 114T284 76Q363 76 397 141Q410 165 410 217V667Z" />
<glyph unicode="V" glyph-name="V" horiz-adv-x="586" d="M590 667L323 0H264L-5 667H100L294 167L487 667H590Z" />
<glyph unicode="W" glyph-name="W" horiz-adv-x="814" d="M800 667L614 0H529L407 466L285 0H199L13 667H114L242 165L372 667H443L571 168L701 667H800Z" />
<glyph unicode="X" glyph-name="X" horiz-adv-x="564" d="M562 0H447L281 254L114 0H0L221 334L0 667H116L281 414L448 667H564L341 334L562 0Z" />
<glyph unicode="Y" glyph-name="Y" horiz-adv-x="510" d="M304 240V0H207V240L0 667H109L256 354L402 667H510L304 240Z" />
<glyph unicode="Z" glyph-name="Z" horiz-adv-x="457" d="M433 89V0H23V89L313 577H39V667H421V577L134 89H433Z" />
<glyph unicode="[" glyph-name="bracketleft" horiz-adv-x="326" d="M162 97Q162 35 182 -3T250 -70V-180Q167 -147 117 -80T66 64V420Q66 510 112 574Q136 608 161 629Q198 661 250 680V571Q162 517 162 411V97Z" />
<glyph unicode="\" glyph-name="backslash" horiz-adv-x="500" d="M26 750H114L455 -83H367L26 750Z" />
<glyph unicode="]" glyph-name="bracketright" horiz-adv-x="326" d="M163 403Q163 464 143 502T76 570V680Q159 647 209 580T260 436V80Q260 -10 214 -74Q191 -105 164 -129Q127 -160 76 -180V-71Q163 -16 163 89V403Z" />
<glyph unicode="^" glyph-name="asciicircum" horiz-adv-x="500" d="M250 598L115 356H19L191 669H309L481 356H385L250 598Z" />
<glyph unicode="_" glyph-name="underscore" horiz-adv-x="500" d="M0 -141V-61H500V-141H0Z" />
<glyph unicode="`" glyph-name="grave" horiz-adv-x="500" d="M326 608L282 553L108 684L151 739L326 608Z" />
<glyph unicode="a" glyph-name="a" horiz-adv-x="621" d="M561 500V0H475V78Q451 42 421 23Q363 -13 287 -13Q178 -13 105 62T32 248Q32 362 106 437T293 513Q350 513 400 490T475 428V500H561ZM296 72Q367 72 417 123T468 248Q468 323 418 375T296 428Q225 428
175 376T125 249Q125 176 175 124T296 72Z" />
<glyph unicode="b" glyph-name="b" horiz-adv-x="617" d="M147 71V0H60V667H154V430Q216 515 327 515Q433 515 509 437T585 249Q585 139 511 63T327 -13Q208 -13 147 71ZM322 430Q250 430 201 378T151 249Q151 175 200 124T321 72Q391 72 441 124T491 250Q491
325 442 377T322 430Z" />
<glyph unicode="c" glyph-name="c" horiz-adv-x="558" d="M429 165H533Q505 83 439 35T287 -13Q179 -13 106 63T32 251Q32 361 106 437T289 513Q375 513 444 462T533 333H429Q377 428 289 428Q218 428 172 378T125 251Q125 178 172 125T286 72Q331 72 370 97T429 165Z" />
<glyph unicode="d" glyph-name="d" horiz-adv-x="616" d="M556 667V0H469V71Q402 -13 290 -13Q180 -13 106 63T32 253Q32 362 104 437T281 513Q334 513 385 491T463 434V667H556ZM295 72Q369 72 419 125T469 257Q469 329 419 378T294 428Q222 428 174 378T125
251Q125 176 174 124T295 72Z" />
<glyph unicode="e" glyph-name="e" horiz-adv-x="574" d="M432 157H526Q498 79 433 33T287 -13Q182 -13 107 64T32 251Q32 361 107 439T289 517Q393 517 467 441T542 257Q542 241 539 209H126Q141 147 185 110T291 72Q383 72 432 157ZM165 377Q135 343 126 281H449Q446
343 399 387T288 431Q213 431 165 377Z" />
<glyph unicode="f" glyph-name="f" horiz-adv-x="283" d="M167 415V0H73V415H29V500H73V523Q73 593 130 637Q169 667 243 667H255V585H245Q167 585 167 523V500H255V415H167Z" />
<glyph unicode="g" glyph-name="g" horiz-adv-x="627" d="M480 500H567V56Q567 -56 490 -126T292 -197Q187 -197 109 -124Q71 -89 49 -39H154Q207 -111 297 -111Q376 -111 424 -65T473 57V68Q401 -13 298 -13Q190 -13 111 65T32 252Q32 361 110 437T301 513Q413
513 480 439V500ZM298 72Q373 72 423 126T474 257Q474 328 423 378T299 428Q227 428 176 376T125 250Q125 177 176 125T298 72Z" />
<glyph unicode="h" glyph-name="h" horiz-adv-x="557" d="M501 313V0H407V283Q407 428 286 428Q225 428 189 389T153 283V0H60V667H153V449Q203 513 297 513Q389 513 445 459T501 313Z" />
<glyph unicode="i" glyph-name="i" horiz-adv-x="213" d="M60 500H153V0H60V500ZM60 667H153V557H60V667Z" />
<glyph unicode="j" glyph-name="j" horiz-adv-x="213" d="M60 500H153V14Q153 -55 148 -77Q138 -121 100 -154Q55 -193 -3 -197V-98Q36 -96 48 -75T60 14V500ZM60 667H153V557H60V667Z" />
<glyph unicode="k" glyph-name="k" horiz-adv-x="474" d="M153 259L333 500H444L263 264L472 0H355L153 259V0H60V667H153V259Z" />
<glyph unicode="l" glyph-name="l" horiz-adv-x="213" d="M60 667H153V0H60V667Z" />
<glyph unicode="m" glyph-name="m" horiz-adv-x="871" d="M815 305V0H721V278Q721 428 602 428Q540 428 509 388Q483 354 483 278V0H390V278Q390 358 364 393T276 428Q204 428 170 373Q153 345 153 278V0H60V500H147V446Q198 513 291 513Q343 513 386 490T447
430Q500 513 612 513Q706 513 760 458T815 305Z" />
<glyph unicode="n" glyph-name="n" horiz-adv-x="559" d="M503 307V0H409V272Q409 344 388 377Q356 428 284 428Q223 428 189 387T155 272V0H60V500H147V447Q197 513 295 513Q388 513 445 456T503 307Z" />
<glyph unicode="o" glyph-name="o" horiz-adv-x="603" d="M301 513Q413 513 492 437T571 253Q571 143 492 65T301 -13Q190 -13 111 65T32 253Q32 361 111 437T301 513ZM301 72Q374 72 425 124T477 251Q477 324 426 376T301 428Q228 428 177 376T125 251Q125 177
176 125T301 72Z" />
<glyph unicode="p" glyph-name="p" horiz-adv-x="615" d="M153 -167H60V500H147V423Q208 513 325 513Q435 513 509 436T583 243Q583 134 511 60T331 -14Q207 -14 153 72V-167ZM321 72Q392 72 441 123T490 249Q490 322 440 375T318 428Q249 428 200 376T151 251Q151
176 200 124T321 72Z" />
<glyph unicode="q" glyph-name="q" horiz-adv-x="616" d="M469 500H556V-167H463V69Q396 -13 294 -13Q183 -13 108 63T32 251Q32 361 107 437T291 513Q344 513 393 491T469 433V500ZM299 72Q371 72 421 123T471 250Q471 325 421 376T297 428Q224 428 175 377T125
251Q125 175 175 124T299 72Z" />
<glyph unicode="r" glyph-name="r" horiz-adv-x="288" d="M153 273V0H60V500H147V455Q192 510 276 513V417Q153 407 153 273Z" />
<glyph unicode="s" glyph-name="s" horiz-adv-x="399" d="M201 513Q267 513 310 472T354 367H261Q252 428 199 428Q172 428 155 413T137 374Q137 349 152 337T215 310Q294 286 329 244T365 147Q365 81 314 34T192 -13Q116 -13 70 35T21 163H115Q121 72 197 72Q230
72 251 90T272 137Q272 166 254 182T184 216Q106 241 75 276T43 358Q43 425 88 469T201 513Z" />
<glyph unicode="t" glyph-name="t" horiz-adv-x="265" d="M249 415H167V0H73V415H5V500H73V667H167V500H249V415Z" />
<glyph unicode="u" glyph-name="u" horiz-adv-x="559" d="M57 193V500H150V228Q150 156 171 123Q203 72 275 72Q336 72 370 113T405 228V500H499V0H412V53Q368 -13 265 -13Q171 -13 114 44T57 193Z" />
<glyph unicode="v" glyph-name="v" horiz-adv-x="456" d="M358 500H458L262 0H196L-2 500H98L229 142L358 500Z" />
<glyph unicode="w" glyph-name="w" horiz-adv-x="709" d="M601 500H701L516 0H464L355 336L246 0H194L8 500H108L220 175L324 500H386L490 175L601 500Z" />
<glyph unicode="x" glyph-name="x" horiz-adv-x="472" d="M234 335L343 500H457L294 256L468 0H357L234 177L114 0H5L178 256L10 500H124L234 335Z" />
<glyph unicode="y" glyph-name="y" horiz-adv-x="495" d="M396 500H497L221 -167H124L197 10L-2 500H99L246 112L396 500Z" />
<glyph unicode="z" glyph-name="z" horiz-adv-x="395" d="M43 415V500H363V406L137 85H381V0H20V72L259 415H43Z" />
<glyph unicode="{" glyph-name="braceleft" horiz-adv-x="500" d="M283 362Q283 313 270 288T223 243Q257 224 270 197T283 122V-28Q283 -79 300 -95T372 -111H380V-189L357 -190Q357 -190 336 -190Q260 -190 227 -156T194 -44V118Q194 195 137 209V283Q194 297
194 368V538Q194 612 228 644T339 677Q357 677 380 676V598Q319 598 301 583T283 517V362Z" />
<glyph unicode="|" glyph-name="bar" horiz-adv-x="500" d="M205 -250V750H295V-250H205Z" />
<glyph unicode="}" glyph-name="braceright" horiz-adv-x="500" d="M231 125Q231 174 244 199T292 244Q258 263 245 289T231 364V515Q231 566 214 582T143 598H134V676L158 677Q158 677 178 677Q254 677 287 643T321 531V369Q321 326 333 306T377 278V204Q321
190 321 119V-51Q321 -125 287 -157T175 -190Q157 -190 134 -189V-111Q195 -111 213 -96T231 -30V125Z" />
<glyph unicode="~" glyph-name="asciitilde" horiz-adv-x="667" d="M226 644Q180 644 144 576L92 609Q126 679 156 705T233 731Q272 731 343 700Q409 671 436 671Q464 671 482 684T522 733L575 702Q539 629 497 604Q463 584 425 584Q390 584 337 607L284 630Q252
644 226 644Z" />
</font>
</defs>
</svg>
