<?xml version="1.0" standalone="no"?> <!DOCTYPE svg PUBLIC "-//W3C//DTD SVG 1.0//EN" "http://www.w3.org/TR/2001/REC-SVG-20010904/DTD/svg10.dtd" > <svg xmlns="http://www.w3.org/2000/svg" width="100%" height="100%">
<defs >
<font id="Avgarddo" horiz-adv-x="978" ><font-face
    font-family="AvantGarde Bk BT"
    units-per-em="2048"
    panose-1="2 11 7 2 2 2 2 9 2 4"
    ascent="1958"
    descent="-483"
    alphabetic="0" />
<missing-glyph horiz-adv-x="1229" d="M102 -362V1444H1126V-362H102ZM217 -248H1012V1329H217V-248Z" />
<glyph unicode=" " glyph-name="space" horiz-adv-x="596" />
<glyph unicode="!" glyph-name="exclam" horiz-adv-x="627" d="M383 379H127L336 1456H592L383 379ZM309 0H53L106 274H362L309 0Z" />
<glyph unicode="&quot;" glyph-name="quotedbl" horiz-adv-x="643" d="M395 1436H559V879H395V1436ZM86 1436H250V879H86V1436Z" />
<glyph unicode="#" glyph-name="numbersign" horiz-adv-x="1575" d="M709 852L618 598H874L965 852H709ZM735 1460H926L772 1024H1022L1178 1460H1368L1214 1024H1505L1446 852H1153L1063 600H1372L1311 428H1004L848 -6H657L813 428H561L403 -6H213L369 428H70L131
600H428L518 852H203L264 1024H580L735 1460Z" />
<glyph unicode="$" glyph-name="dollar" horiz-adv-x="1190" d="M530 -190H311L358 57Q224 113 157 208T90 438Q90 463 90 474T92 497L354 498Q354 492 353 480T352 461Q352 378 403 332T545 285Q627 285 677 332T727 457Q727 560 564 663Q534 682 518 692Q360
796 296 885T231 1083Q231 1240 335 1346T606 1468L645 1669H862L821 1458Q943 1415 1003 1327T1063 1102V1075H801V1094Q801 1169 765 1209T662 1249Q595 1249 551 1211T506 1114Q506 1029 674 917Q715 890 738 874Q881 775 941 680T1001 463Q1001 285 886 170T573
37L530 -190Z" />
<glyph unicode="%" glyph-name="percent" horiz-adv-x="1796" d="M287 1126Q287 1056 335 1009T455 961Q525 961 573 1008T621 1126Q621 1197 573 1245T455 1294Q384 1294 336 1246T287 1126ZM94 1126Q94 1198 121 1263T201 1380Q251 1431 316 1458T455 1485Q527
1485 591 1458T707 1380Q758 1329 785 1264T813 1126Q813 1054 786 989T707 872Q656 822 592 795T455 768Q382 768 317 795T201 872Q149 924 122 989T94 1126ZM1212 1485H1374L596 -31H434L1212 1485ZM1182 330Q1182 259 1230 211T1350 162Q1420 162 1469 210T1518
330Q1518 400 1469 449T1350 498Q1279 498 1231 449T1182 330ZM991 330Q991 402 1018 467T1096 584Q1146 634 1211 661T1350 688Q1422 688 1487 661T1604 584Q1654 533 1681 468T1708 330Q1708 257 1682 192T1604 76Q1553 25 1488 -2T1350 -29Q1277 -29 1212 -2T1096
76Q1045 126 1018 191T991 330Z" />
<glyph unicode="&amp;" glyph-name="ampersand" horiz-adv-x="1403" d="M569 936Q655 964 707 1020T760 1135Q760 1186 724 1220T631 1255Q570 1255 528 1213T485 1108Q485 1069 505 1028T569 936ZM735 389L473 666Q379 611 332 546T285 406Q285 326 341 269T475
211Q544 211 610 256T735 389ZM315 829Q271 894 249 956T227 1081Q227 1255 344 1371T643 1487Q805 1487 906 1396T1008 1159Q1008 1041 935 942T723 774L874 614L1083 954H1341L1040 440L1315 150L1120 -16L899 217Q795 86 693 29T461 -29Q272 -29 150 90T27 389Q27
516 101 630T315 829Z" />
<glyph unicode="&apos;" glyph-name="quotesingle" horiz-adv-x="334" d="M86 1436H250V879H86V1436Z" />
<glyph unicode="(" glyph-name="parenleft" horiz-adv-x="606" d="M629 1221Q524 1211 473 1145T379 860L260 252Q246 183 239 128T231 37Q231 -32 264 -84T360 -166L307 -430Q126 -381 39 -277T-49 -4Q-49 43 -40 114T-12 281L121 963Q123 975 128 1000Q176 1249
270 1343Q342 1414 445 1449T680 1485L629 1221Z" />
<glyph unicode=")" glyph-name="parenright" horiz-adv-x="606" d="M-104 -166Q2 -156 53 -89T147 193L264 803Q280 878 287 932T295 1018Q295 1087 262 1139T166 1221L217 1485Q398 1436 486 1330T575 1057Q575 1011 566 940T539 774L406 93Q403 79 398 54Q350
-195 256 -289Q185 -359 81 -394T-156 -430L-104 -166Z" />
<glyph unicode="*" glyph-name="asterisk" horiz-adv-x="1024" d="M592 907L414 655L268 756L463 1004L174 1083L229 1253L506 1161V1456H678V1161L950 1253L1010 1083L723 1006L913 756L770 651L592 907Z" />
<glyph unicode="+" glyph-name="plus" horiz-adv-x="1706" d="M768 1221H938V694H1452V528H938V0H768V528H254V694H768V1221Z" />
<glyph unicode="," glyph-name="comma" horiz-adv-x="586" d="M51 -129Q100 -118 126 -87T160 0H66L119 274H375L322 2Q292 -155 227 -215T20 -285L51 -129Z" />
<glyph unicode="-" glyph-name="hyphen" horiz-adv-x="696" d="M631 668L586 432H66L111 668H631Z" />
<glyph unicode="." glyph-name="period" horiz-adv-x="596" d="M322 0H66L119 274H375L322 0Z" />
<glyph unicode="/" glyph-name="slash" horiz-adv-x="569" d="M127 -190H-45L432 1456H602L127 -190Z" />
<glyph unicode="0" glyph-name="zero" horiz-adv-x="1190" d="M408 946L330 561Q320 514 315 477T309 416Q309 319 364 267T524 215Q634 215 690 276T780 508L858 893Q870 946 875 982T881 1040Q881 1137 825 1189T664 1241Q556 1241 499 1178T408 946ZM143 1012Q189
1246 324 1366T678 1487Q900 1487 1027 1376T1155 1073Q1155 1036 1151 998T1139 922L1044 444Q998 211 863 90T512 -31Q289 -31 162 80T35 385Q35 415 39 451T51 532L143 1012Z" />
<glyph unicode="1" glyph-name="one" horiz-adv-x="1190" d="M735 0H457L674 1104L305 715L137 874L659 1456H1018L735 0Z" />
<glyph unicode="2" glyph-name="two" horiz-adv-x="1190" d="M965 0H-16L33 252L512 662Q704 825 761 908T819 1075Q819 1150 776 1194T662 1239Q565 1239 507 1173T430 977H172Q199 1212 329 1348T657 1485Q857 1485 982 1372T1108 1081Q1108 939 1017 801T725
502L406 246H1012L965 0Z" />
<glyph unicode="3" glyph-name="three" horiz-adv-x="1190" d="M57 452L322 453V430Q322 328 373 273T518 217Q627 217 691 282T756 457Q756 573 683 628T459 684L506 934Q514 933 524 933T553 932Q659 932 719 979T780 1110Q780 1174 742 1212T641 1251Q580 1251
538 1215T473 1104H215Q258 1300 365 1392T657 1485Q836 1485 946 1385T1057 1122Q1057 991 985 907T778 795Q904 746 968 655T1032 434Q1032 238 884 105T516 -29Q303 -29 178 84T53 391Q53 401 54 414T57 452Z" />
<glyph unicode="4" glyph-name="four" horiz-adv-x="1190" d="M637 477L764 1114L270 477H637ZM819 0H545L590 240H-37L12 496L791 1456H1102L911 477H1079L1032 240H864L819 0Z" />
<glyph unicode="5" glyph-name="five" horiz-adv-x="1190" d="M459 950Q513 971 558 981T643 991Q828 991 948 860T1069 524Q1069 284 915 128T522 -29Q293 -29 163 91T33 424V446H276V430Q276 330 343 268T516 205Q641 205 717 293T793 530Q793 632 725 700T555
768Q481 768 425 740T328 651L100 725L383 1456H1108L1061 1219H557L459 950Z" />
<glyph unicode="6" glyph-name="six" horiz-adv-x="1190" d="M829 532Q829 644 759 711T573 778Q447 778 367 692T287 469Q287 356 355 287T532 217Q663 217 746 305T829 532ZM745 1456H1075L639 991Q853 981 976 861T1100 543Q1100 299 940 135T541 -29Q317 -29
173 106T29 449Q29 600 97 733T346 1049L745 1456Z" />
<glyph unicode="7" glyph-name="seven" horiz-adv-x="1190" d="M348 0H47L813 1219H221L266 1456H1163L1118 1219L348 0Z" />
<glyph unicode="8" glyph-name="eight" horiz-adv-x="1190" d="M653 1253Q575 1253 523 1199T471 1061Q471 997 514 956T627 915Q705 915 754 967T803 1104Q803 1171 762 1212T653 1253ZM563 684Q457 684 390 611T322 422Q322 332 380 275T528 217Q633 217 706
291T780 471Q780 568 722 626T563 684ZM344 815Q274 874 241 936T207 1069Q207 1243 334 1364T651 1485Q836 1485 950 1385T1065 1126Q1065 1010 1007 931T827 805Q937 758 992 672T1047 461Q1047 254 896 113T522 -29Q310 -29 181 90T51 403Q51 543 124 646T344
815Z" />
<glyph unicode="9" glyph-name="nine" horiz-adv-x="1190" d="M362 924Q362 811 431 744T616 676Q743 676 824 763T905 987Q905 1100 837 1169T657 1239Q527 1239 445 1151T362 924ZM444 0H115L551 463Q338 474 215 594T92 913Q92 1157 251 1321T651 1485Q875
1485 1019 1350T1163 1008Q1163 858 1095 725T844 408L444 0Z" />
<glyph unicode=":" glyph-name="colon" horiz-adv-x="627" d="M485 825H229L283 1100H539L485 825ZM322 0H66L119 274H375L322 0Z" />
<glyph unicode=";" glyph-name="semicolon" horiz-adv-x="627" d="M485 825H229L283 1100H539L485 825ZM51 -129Q100 -118 126 -87T160 0H66L119 274H375L322 2Q292 -155 227 -215T20 -285L51 -129Z" />
<glyph unicode="&lt;" glyph-name="less" horiz-adv-x="1706" d="M1442 1176V991L508 610L1442 229V47L264 530V690L1442 1176Z" />
<glyph unicode="=" glyph-name="equal" horiz-adv-x="1706" d="M254 487H1452V322H254V487ZM254 901H1452V733H254V901Z" />
<glyph unicode="&gt;" glyph-name="greater" horiz-adv-x="1706" d="M264 1176L1442 690V530L264 47V229L1198 610L264 991V1176Z" />
<glyph unicode="?" glyph-name="question" horiz-adv-x="1042" d="M344 1037L98 1036Q117 1252 242 1368T582 1485Q777 1485 895 1377T1014 1092Q1014 983 964 894T786 694Q779 688 766 676Q574 513 557 379H305Q322 510 373 603T557 813Q576 830 613 860Q760
980 760 1073Q760 1152 704 1202T557 1253Q467 1253 410 1195T344 1037ZM485 0H229L283 274H539L485 0Z" />
<glyph unicode="@" glyph-name="at" horiz-adv-x="2048" d="M1174 283Q1119 196 1046 156T870 115Q718 115 638 201T557 451Q557 684 695 846T1028 1008Q1117 1008 1177 974T1276 866L1331 973H1485L1337 387Q1336 382 1335 375Q1329 347 1329 338Q1329 300 1355
277T1425 254Q1476 254 1532 284T1638 369Q1710 445 1748 546T1786 762Q1786 1015 1599 1173T1110 1331Q972 1331 854 1300T639 1206Q458 1093 360 915T262 520Q262 208 471 21T1030 -166Q1196 -166 1353 -117T1645 25L1712 -74Q1563 -187 1394 -244T1038 -301Q846
-301 687 -253T406 -111Q251 7 175 164T98 522Q98 687 150 835T303 1108Q450 1287 656 1380T1116 1473Q1282 1473 1431 1428T1686 1300Q1818 1198 1884 1065T1950 764Q1950 602 1885 462T1700 225Q1631 170 1550 142T1382 113Q1276 113 1225 153T1174 279V283ZM1233
707Q1219 791 1172 837T1049 883Q922 883 832 755T741 444Q741 346 786 293T915 240Q1005 240 1078 306T1178 479L1233 707Z" />
<glyph unicode="A" glyph-name="A" horiz-adv-x="1286" d="M-176 0L641 1456H946L1262 0H971L905 307H307L137 0H-176ZM850 578L739 1098L455 578H850Z" />
<glyph unicode="B" glyph-name="B" horiz-adv-x="1128" d="M-20 0L262 1456H692Q873 1456 976 1363T1079 1110Q1079 991 1016 902T825 754Q917 708 965 625T1014 432Q1014 331 969 242T842 90Q777 41 693 21T442 0H-20ZM311 236H430Q586 236 651 293T717 485Q717
583 660 625T465 668Q437 668 423 668T395 665L311 236ZM439 893Q469 890 483 890T510 889Q641 889 711 940T782 1085Q782 1161 727 1196T551 1231Q543 1231 528 1230T504 1229L439 893Z" />
<glyph unicode="C" glyph-name="C" horiz-adv-x="1554" d="M1475 461Q1380 230 1184 101T731 -29Q600 -29 489 7T287 115Q165 210 100 348T35 649Q35 815 98 969T279 1245Q389 1360 540 1422T862 1485Q1114 1485 1296 1348T1538 977H1225Q1171 1094 1073 1154T836
1214Q733 1214 647 1177T485 1063Q406 982 367 885T328 674Q328 480 444 359T745 238Q868 238 973 294T1159 461H1475Z" />
<glyph unicode="D" glyph-name="D" horiz-adv-x="1421" d="M626 1225H506L311 231H467Q729 231 896 390T1063 799Q1063 1001 949 1112T626 1225ZM688 1456Q1008 1456 1184 1290T1360 823Q1360 450 1133 225T528 0H-18L262 1456H688Z" />
<glyph unicode="E" glyph-name="E" horiz-adv-x="1028" d="M-27 0L256 1456H1069L1022 1208H496L428 862H954L905 616H381L309 246H836L786 0H-27Z" />
<glyph unicode="F" glyph-name="F" horiz-adv-x="1010" d="M-25 0L258 1456H1042L993 1208H496L428 862H926L879 616H381L262 0H-25Z" />
<glyph unicode="G" glyph-name="G" horiz-adv-x="1602" d="M1544 760Q1515 396 1293 183T721 -31Q420 -31 239 150T57 633Q57 782 94 911T205 1147Q317 1309 490 1397T870 1485Q1125 1485 1294 1362T1518 1016H1204Q1165 1109 1073 1161T854 1214Q632 1214 489
1058T346 653Q346 465 456 354T750 242Q892 242 1009 313T1192 510H602L651 760H1544Z" />
<glyph unicode="H" glyph-name="H" horiz-adv-x="1280" d="M-18 0L264 1456H549L436 874H899L1012 1456H1298L1016 0H729L852 627H389L266 0H-18Z" />
<glyph unicode="I" glyph-name="I" horiz-adv-x="512" d="M-25 0L258 1456H543L260 0H-25Z" />
<glyph unicode="J" glyph-name="J" horiz-adv-x="1014" d="M1036 1456L831 379Q793 177 675 74T365 -29Q170 -29 64 68T-43 342Q-43 364 -43 376T-41 397H236V385Q236 311 270 274T373 236Q450 236 493 284T559 446L754 1456H1036Z" />
<glyph unicode="K" glyph-name="K" horiz-adv-x="1171" d="M387 672L258 0H-31L252 1456H541L428 883L975 1456H1309L643 764L1098 0H780L387 672Z" />
<glyph unicode="L" glyph-name="L" horiz-adv-x="991" d="M20 0L303 1456H588L352 250H831L782 0H20Z" />
<glyph unicode="M" glyph-name="M" horiz-adv-x="1835" d="M1866 1456L1583 0H1305L1524 1178L938 0H621L487 1178L260 0H-25L260 1456H702L831 350L1401 1456H1866Z" />
<glyph unicode="N" glyph-name="N" horiz-adv-x="1432" d="M-20 0L264 1456H635L973 328L1194 1456H1464L1180 0H809L475 1135L248 0H-20Z" />
<glyph unicode="O" glyph-name="O" horiz-adv-x="1602" d="M57 633Q57 827 119 986T301 1262Q417 1373 562 1429T879 1485Q1182 1485 1363 1304T1544 817Q1544 627 1482 467T1300 193Q1185 82 1039 26T721 -31Q420 -31 239 151T57 633ZM346 653Q346 467 455 354T745
240Q971 240 1113 396T1255 801Q1255 991 1147 1102T854 1214Q632 1214 489 1058T346 653Z" />
<glyph unicode="P" glyph-name="P" horiz-adv-x="1147" d="M412 821H557Q691 821 759 875T827 1036Q827 1131 762 1176T557 1221Q531 1221 517 1221T489 1218L412 821ZM252 0H-35L248 1456H635Q869 1456 995 1346T1122 1032Q1122 929 1084 842T973 692Q893 625
801 596T547 567H362L252 0Z" />
<glyph unicode="Q" glyph-name="Q" horiz-adv-x="1602" d="M1499 211L1454 -20Q1413 -27 1396 -29T1368 -31Q1302 -31 1240 -6T1124 66Q1032 16 933 -7T719 -31Q419 -31 236 151T53 633Q53 826 115 986T297 1262Q413 1373 558 1429T874 1485Q1179 1485 1359 1303T1540
815Q1540 643 1488 498T1329 225Q1358 209 1380 202T1423 195Q1438 195 1457 199T1499 211ZM942 279Q838 376 724 425T489 475Q454 475 428 473T379 465Q418 361 517 301T748 240Q797 240 845 249T942 279ZM1118 412Q1187 486 1219 580T1251 801Q1251 991 1144
1102T852 1214Q637 1214 494 1068T342 691Q406 696 444 698T510 700Q685 700 837 628T1118 412Z" />
<glyph unicode="R" glyph-name="R" horiz-adv-x="1247" d="M414 762Q427 761 443 761T492 760Q705 760 807 822T909 1014Q909 1110 844 1162T659 1214Q627 1214 587 1213T500 1208L414 762ZM711 545L1044 0H729L391 647L266 0H-18L264 1456H672Q928 1456 1067
1343T1206 1024Q1206 819 1072 689T711 545Z" />
<glyph unicode="S" glyph-name="S" horiz-adv-x="1100" d="M1060 1063H780V1083Q780 1160 739 1204T629 1249Q558 1249 511 1202T463 1087Q463 996 670 869Q720 839 748 821Q881 736 933 649T985 432Q985 231 847 101T494 -29Q268 -29 149 90T29 434V467H307Q307
461 306 451T305 436Q305 341 355 287T494 233Q580 233 635 289T690 432Q690 493 662 534T541 633Q523 643 487 663Q337 748 270 821Q223 872 198 936T172 1071Q172 1256 300 1370T637 1485Q836 1485 949 1385T1063 1110Q1063 1091 1063 1082T1060 1063Z" />
<glyph unicode="T" glyph-name="T" horiz-adv-x="905" d="M160 0L403 1210H96L143 1456H1012L965 1210H688L444 0H160Z" />
<glyph unicode="U" glyph-name="U" horiz-adv-x="1255" d="M1100 578Q1033 230 904 101T512 -29Q306 -29 184 73T61 346Q61 395 68 453T88 578L260 1456H541L381 641Q371 592 366 545T360 457Q360 361 412 308T557 254Q669 254 728 331T838 670L991 1456H1268L1100 578Z" />
<glyph unicode="V" glyph-name="V" horiz-adv-x="1223" d="M281 0L43 1456H330L510 338L1098 1456H1389L623 0H281Z" />
<glyph unicode="W" glyph-name="W" horiz-adv-x="1864" d="M88 1456H377L371 324L883 1456H1219L1227 291L1722 1456H2021L1346 0H999L983 1147L477 0H123L88 1456Z" />
<glyph unicode="X" glyph-name="X" horiz-adv-x="1313" d="M635 524L176 0H-172L494 762L135 1456H436L702 950L1141 1456H1470L846 719L1225 0H915L635 524Z" />
<glyph unicode="Y" glyph-name="Y" horiz-adv-x="1161" d="M291 0L403 551L98 1456H381L580 829L1001 1456H1323L682 551L578 0H291Z" />
<glyph unicode="Z" glyph-name="Z" horiz-adv-x="1200" d="M-23 0L20 227L797 1208H225L272 1456H1192L1149 1235L369 256H1016L967 0H-23Z" />
<glyph unicode="[" glyph-name="bracketleft" horiz-adv-x="606" d="M168 -221H354L317 -410H-150L213 1456H680L643 1266H457L168 -221Z" />
<glyph unicode="\" glyph-name="backslash" horiz-adv-x="569" d="M152 1456H324L442 -190H270L152 1456Z" />
<glyph unicode="]" glyph-name="bracketright" horiz-adv-x="606" d="M354 1266H168L205 1456H672L309 -410H-158L-121 -221H66L354 1266Z" />
<glyph unicode="^" glyph-name="asciicircum" horiz-adv-x="2048" d="M915 1460H1133L1628 899H1421L1024 1296L625 899H418L915 1460Z" />
<glyph unicode="_" glyph-name="underscore" horiz-adv-x="1024" d="M0 -311H1024V-483H0V-311Z" />
<glyph unicode="`" glyph-name="grave" horiz-adv-x="1024" d="M721 1243H604L301 1593H514L721 1243Z" />
<glyph unicode="a" glyph-name="a" horiz-adv-x="1319" d="M844 0L858 76Q801 23 731 -3T575 -29Q347 -29 205 120T63 512Q63 614 93 707T186 887Q269 1002 390 1063T657 1124Q767 1124 860 1082T1024 958L1051 1100H1313L1094 0H844ZM668 893Q525 893 421 783T317
516Q317 379 396 295T606 211Q751 211 851 321T952 594Q952 725 872 809T668 893Z" />
<glyph unicode="b" glyph-name="b" horiz-adv-x="1319" d="M354 516Q354 379 433 295T639 211Q786 211 886 321T987 592Q987 726 907 807T694 889Q551 889 453 782T354 516ZM-6 0L276 1456H526L442 1030Q505 1076 579 1099T739 1122Q956 1122 1098 974T1241 600Q1241
471 1195 353T1061 145Q978 59 867 15T621 -29Q495 -29 413 5T266 117L240 0H-6Z" />
<glyph unicode="c" glyph-name="c" horiz-adv-x="1200" d="M1151 385Q1085 189 935 80T578 -29Q343 -29 194 119T45 502Q45 642 100 766T258 983Q336 1053 435 1089T647 1126Q853 1126 994 1015T1176 709H915Q877 796 808 841T643 887Q492 887 396 781T299 506Q299
375 380 293T590 211Q682 211 755 255T879 385H1151Z" />
<glyph unicode="d" glyph-name="d" horiz-adv-x="1319" d="M844 0L858 76Q801 23 731 -3T575 -29Q347 -29 205 120T63 512Q63 614 93 707T186 887Q269 1002 390 1063T657 1124Q767 1124 860 1082T1024 958L1118 1456H1376L1096 0H844ZM668 893Q525 893 421 783T317
516Q317 379 396 295T606 211Q751 211 851 321T952 594Q952 725 872 809T668 893Z" />
<glyph unicode="e" glyph-name="e" horiz-adv-x="1241" d="M324 672H922Q894 775 817 832T627 889Q524 889 444 832T324 672ZM1130 346Q1056 165 911 68T569 -29Q337 -29 188 120T39 502Q39 641 95 765T254 983Q333 1054 433 1091T647 1128Q882 1128 1031 981T1180
600Q1180 571 1177 536T1167 457H297Q321 336 393 274T580 211Q662 211 728 244T848 346H1130Z" />
<glyph unicode="f" glyph-name="f" horiz-adv-x="653" d="M63 0L231 868H72L117 1098H276Q306 1293 411 1383T717 1473Q745 1473 808 1469L815 1468L770 1233Q768 1233 764 1233Q717 1237 698 1237Q616 1237 579 1206T530 1098H696L651 868H485L315 0H63Z" />
<glyph unicode="g" glyph-name="g" horiz-adv-x="1319" d="M1090 -14Q1046 -226 914 -327T547 -428Q337 -428 193 -330T25 -72H289Q324 -143 392 -178T561 -213Q698 -213 766 -147T858 76Q801 23 731 -3T575 -29Q347 -29 205 120T63 512Q63 614 93 707T186 887Q269
1002 390 1063T657 1124Q767 1124 860 1082T1024 958L1051 1100H1313L1090 -14ZM668 893Q525 893 421 783T317 516Q317 379 396 295T606 211Q751 211 851 321T952 594Q952 725 872 809T668 893Z" />
<glyph unicode="h" glyph-name="h" horiz-adv-x="1194" d="M2 0L285 1456H541L455 1022Q514 1070 578 1094T715 1118Q908 1118 1008 1027T1108 760Q1108 727 1099 659T1071 500L975 0H711L823 581Q830 615 834 649T838 715Q838 802 794 847T666 893Q545 893 472
811T365 553L258 0H2Z" />
<glyph unicode="i" glyph-name="i" horiz-adv-x="479" d="M2 0L215 1100H469L256 0H2ZM238 1217L285 1456H539L492 1217H238Z" />
<glyph unicode="j" glyph-name="j" horiz-adv-x="494" d="M244 1217L289 1456H563L518 1217H244ZM-242 -358L-195 -119H-176Q-81 -119 -41 -81T23 84L219 1100H494L279 -18Q244 -202 146 -282T-141 -362Q-173 -362 -235 -359L-242 -358Z" />
<glyph unicode="k" glyph-name="k" horiz-adv-x="1053" d="M-23 0L260 1456H528L365 621L825 1100H1151L639 569L993 0H690L352 551L246 0H-23Z" />
<glyph unicode="l" glyph-name="l" horiz-adv-x="479" d="M0 0L283 1456H539L256 0H0Z" />
<glyph unicode="m" glyph-name="m" horiz-adv-x="1911" d="M442 1100L418 995Q481 1058 556 1089T721 1120Q845 1120 933 1074T1069 936Q1144 1028 1236 1074T1436 1120Q1615 1120 1716 1025T1817 760Q1817 683 1784 522Q1781 507 1780 500L1683 0H1419L1532 582Q1539
616 1542 649T1546 715Q1546 802 1503 847T1374 893Q1254 893 1180 810T1073 553L967 0H702L815 581Q822 615 825 648T829 715Q829 802 786 847T657 893Q537 893 464 811T356 553L244 0H-6L213 1100H442Z" />
<glyph unicode="n" glyph-name="n" horiz-adv-x="1194" d="M449 1100L426 995Q489 1057 559 1087T709 1118Q907 1118 1007 1028T1108 760Q1108 727 1099 659T1071 500L975 0H711L823 581Q830 615 834 649T838 715Q838 802 794 847T666 893Q545 893 472 811T365
553L252 0H-2L221 1100H449Z" />
<glyph unicode="o" glyph-name="o" horiz-adv-x="1241" d="M641 893Q495 893 397 783T299 506Q299 377 379 294T586 211Q733 211 834 321T936 592Q936 728 855 810T641 893ZM45 502Q45 645 101 770T262 989Q342 1060 442 1096T657 1133Q891 1133 1040 984T1190
602Q1190 471 1144 354T1010 145Q928 61 817 16T575 -29Q343 -29 194 120T45 502Z" />
<glyph unicode="p" glyph-name="p" horiz-adv-x="1319" d="M354 516Q354 379 433 295T639 211Q786 211 886 321T987 592Q987 726 907 807T694 889Q551 889 453 782T354 516ZM-72 -356L209 1100H457L442 1030Q505 1076 579 1099T739 1122Q956 1122 1098 974T1241
600Q1241 471 1195 353T1061 145Q978 59 867 15T621 -29Q495 -29 413 5T266 117L174 -356H-72Z" />
<glyph unicode="q" glyph-name="q" horiz-adv-x="1305" d="M1305 1128L1018 -356H766L852 70Q789 24 715 1T555 -23Q338 -23 196 125T53 500Q53 630 99 747T231 954Q315 1041 426 1085T672 1130Q797 1130 880 1096T1028 983L1057 1128H1305ZM940 584Q940 721 862
805T655 889Q508 889 407 779T305 508Q305 374 386 293T600 211Q744 211 842 318T940 584Z" />
<glyph unicode="r" glyph-name="r" horiz-adv-x="782" d="M6 0L219 1100H453L424 954Q494 1046 585 1089T801 1133H809L760 875Q583 872 500 804T381 555L272 0H6Z" />
<glyph unicode="s" glyph-name="s" horiz-adv-x="901" d="M25 362H285V356Q285 284 318 245T412 205Q459 205 489 234T520 309Q520 346 496 376T414 444Q383 465 329 498Q230 560 209 584Q168 630 150 677T131 778Q131 925 238 1024T506 1124Q659 1124 754 1033T850
795V778L590 779Q588 840 564 871T494 903Q453 903 424 877T395 813Q395 755 524 676Q545 663 558 655Q688 574 739 503T791 340Q791 182 682 77T408 -29Q229 -29 126 65T23 324Q23 329 24 342T25 362Z" />
<glyph unicode="t" glyph-name="t" horiz-adv-x="674" d="M76 0L244 870H96L141 1100H289L356 1444H621L555 1100H713L670 870H510L340 0H76Z" />
<glyph unicode="u" glyph-name="u" horiz-adv-x="1194" d="M768 90Q704 29 625 -1T446 -31Q275 -31 181 62T86 326Q86 368 94 431T121 588L219 1100H485L371 504Q362 462 358 430T354 371Q354 284 398 240T528 195Q649 195 722 276T829 532L942 1100H1194L975
0H748L768 90Z" />
<glyph unicode="v" glyph-name="v" horiz-adv-x="1053" d="M236 0L23 1100H283L424 322L842 1100H1128L522 0H236Z" />
<glyph unicode="w" glyph-name="w" horiz-adv-x="1507" d="M129 0L51 1100H295L324 328L682 1100H924L973 336L1337 1100H1597L1038 0H788L717 737L383 0H129Z" />
<glyph unicode="x" glyph-name="x" horiz-adv-x="1028" d="M367 1100L541 754L831 1100H1141L670 561L971 0H666L483 365L178 0H-135L350 573L66 1100H367Z" />
<glyph unicode="y" glyph-name="y" horiz-adv-x="1053" d="M-45 -356L238 119L39 1100H311L442 408L862 1100H1149L252 -356H-45Z" />
<glyph unicode="z" glyph-name="z" horiz-adv-x="934" d="M-37 0L4 227L567 864H123L166 1100H946L907 879L342 236H846L805 0H-37Z" />
<glyph unicode="{" glyph-name="braceleft" horiz-adv-x="1024" d="M874 1477V1298Q866 1298 850 1299T827 1300Q718 1300 680 1259T641 1085V844Q641 689 597 624T438 530Q552 503 596 438T641 217V-23Q641 -155 680 -197T829 -240Q836 -240 851 -239T874 -238V-414H811Q709
-414 646 -402T539 -365Q482 -331 459 -269T436 -66V182Q436 326 384 385T205 444Q198 444 184 443T162 442V621Q169 621 183 620T205 618Q331 618 383 677T436 879V1126Q436 1271 459 1332T539 1427Q583 1454 648 1465T829 1477H874Z" />
<glyph unicode="|" glyph-name="bar" horiz-adv-x="1024" d="M424 1565H602V-483H424V1565Z" />
<glyph unicode="}" glyph-name="braceright" horiz-adv-x="1024" d="M152 1477H197Q312 1477 376 1466T485 1427Q542 1394 565 1332T588 1126V879Q588 735 640 677T819 618Q825 618 840 619T862 621V442Q855 442 841 443T819 444Q693 444 641 385T588 182V-66Q588
-209 565 -270T485 -365Q442 -391 377 -402T197 -414H152V-238Q160 -238 175 -239T197 -240Q306 -240 344 -198T383 -23V217Q383 370 428 436T588 530Q473 558 428 623T383 844V1085Q383 1217 345 1258T199 1300Q192 1300 176 1299T152 1298V1477Z" />
<glyph unicode="~" glyph-name="asciitilde" horiz-adv-x="1706" d="M1530 784V600Q1427 529 1333 494T1149 459Q1105 459 1057 467T958 494Q933 502 882 520Q670 594 563 594Q481 594 389 556T178 434V621Q284 693 380 728T565 764Q627 764 690 752T859 704Q872
700 901 689Q1065 631 1151 631Q1236 631 1328 668T1530 784Z" />
</font>
</defs>
</svg>
