<?xml version="1.0" encoding="UTF-8" standalone="no"?>
<!DOCTYPE svg PUBLIC "-//W3C//DTD SVG 1.1//EN"
 "http://www.w3.org/Graphics/SVG/1.1/DTD/svg11.dtd">
<!-- Generated by graphviz version 2.36.0 (20140111.2315)
 -->
<!-- Title: G Pages: 1 -->
<svg width="240pt" height="348pt"
 viewBox="0.00 0.00 240.00 348.00" xmlns="http://www.w3.org/2000/svg" xmlns:xlink="http://www.w3.org/1999/xlink">
<g id="graph0" class="graph" transform="scale(1 1) rotate(0) translate(4 344)">
<title>G</title>
<polygon fill="white" stroke="none" points="-4,4 -4,-344 236,-344 236,4 -4,4"/>
<g id="clust1" class="cluster"><title>cluster_Global</title>
<path fill="none" stroke="gray" d="M20,-44C20,-44 212,-44 212,-44 218,-44 224,-50 224,-56 224,-56 224,-320 224,-320 224,-326 218,-332 212,-332 212,-332 20,-332 20,-332 14,-332 8,-326 8,-320 8,-320 8,-56 8,-56 8,-50 14,-44 20,-44"/>
<text text-anchor="middle" x="116" y="-319.2" font-family="Times,serif" font-size="11.00" fill="gray">Global</text>
</g>
<!-- \\User -->
<g id="node1" class="node"><title>\\User</title>
<polygon fill="none" stroke="black" points="213,-142 159,-142 159,-106 213,-106 213,-142"/>
<text text-anchor="middle" x="186" y="-121.2" font-family="Times,serif" font-size="11.00">User</text>
</g>
<!-- \\Lib -->
<g id="node3" class="node"><title>\\Lib</title>
<polygon fill="none" stroke="black" points="70,-196 16,-196 16,-160 70,-160 70,-196"/>
<text text-anchor="middle" x="43" y="-175.2" font-family="Times,serif" font-size="11.00">Lib</text>
</g>
<!-- \\User&#45;&gt;\\Lib -->
<g id="edge1" class="edge"><title>\\User&#45;&gt;\\Lib</title>
<path fill="none" stroke="black" d="M158.809,-134.03C136.451,-142.593 104.095,-154.985 79.4264,-164.432"/>
<polygon fill="none" stroke="black" points="78.1371,-161.178 70.0503,-168.023 80.6407,-167.715 78.1371,-161.178"/>
</g>
<!-- \\Iterator -->
<g id="node7" class="node"><title>\\Iterator</title>
<ellipse fill="none" stroke="black" cx="43" cy="-18" rx="40.0939" ry="18"/>
<text text-anchor="middle" x="43" y="-14.3" font-family="Times,serif" font-size="14.00" fill="gray">\Iterator</text>
</g>
<!-- \\User&#45;&gt;\\Iterator -->
<g id="edge2" class="edge"><title>\\User&#45;&gt;\\Iterator</title>
<path fill="none" stroke="black" stroke-dasharray="1,5" d="M165.393,-105.757C145.668,-87.8816 113.963,-60.4245 84,-40 82.3792,-38.8952 80.6979,-37.7983 78.9829,-36.7183"/>
<polygon fill="none" stroke="black" points="80.6313,-33.626 70.2523,-31.4984 77.0392,-39.6341 80.6313,-33.626"/>
</g>
<!-- \\Database -->
<g id="node2" class="node"><title>\\Database</title>
<polygon fill="none" stroke="black" points="214.5,-196 157.5,-196 157.5,-160 214.5,-160 214.5,-196"/>
<text text-anchor="middle" x="186" y="-175.2" font-family="Times,serif" font-size="11.00">Database</text>
</g>
<!-- \\Database&#45;&gt;\\Lib -->
<g id="edge3" class="edge"><title>\\Database&#45;&gt;\\Lib</title>
<path fill="none" stroke="black" d="M157.479,-178C135.418,-178 104.278,-178 80.1976,-178"/>
<polygon fill="none" stroke="black" points="80.0234,-174.5 70.0233,-178 80.0233,-181.5 80.0234,-174.5"/>
</g>
<!-- \\Auth -->
<g id="node4" class="node"><title>\\Auth</title>
<polygon fill="none" stroke="black" points="213,-304 159,-304 159,-268 213,-268 213,-304"/>
<text text-anchor="middle" x="186" y="-283.2" font-family="Times,serif" font-size="11.00">Auth</text>
</g>
<!-- \\Auth&#45;&gt;\\Lib -->
<g id="edge4" class="edge"><title>\\Auth&#45;&gt;\\Lib</title>
<path fill="none" stroke="black" d="M161.4,-267.923C137.914,-249.934 101.719,-222.21 75.7282,-202.302"/>
<polygon fill="none" stroke="black" points="77.7443,-199.438 67.6772,-196.136 73.4877,-204.995 77.7443,-199.438"/>
</g>
<!-- \\Dom -->
<g id="node5" class="node"><title>\\Dom</title>
<polygon fill="none" stroke="black" points="213,-250 159,-250 159,-214 213,-214 213,-250"/>
<text text-anchor="middle" x="186" y="-229.2" font-family="Times,serif" font-size="11.00">Dom</text>
</g>
<!-- \\Dom&#45;&gt;\\Lib -->
<g id="edge5" class="edge"><title>\\Dom&#45;&gt;\\Lib</title>
<path fill="none" stroke="black" d="M158.809,-221.97C136.451,-213.407 104.095,-201.015 79.4264,-191.568"/>
<polygon fill="none" stroke="black" points="80.6407,-188.285 70.0503,-187.977 78.1371,-194.822 80.6407,-188.285"/>
</g>
<!-- \\MetaData -->
<g id="node6" class="node"><title>\\MetaData</title>
<polygon fill="none" stroke="black" points="216,-88 156,-88 156,-52 216,-52 216,-88"/>
<text text-anchor="middle" x="186" y="-67.2" font-family="Times,serif" font-size="11.00">MetaData</text>
</g>
<!-- \\MetaData&#45;&gt;\\Lib -->
<g id="edge6" class="edge"><title>\\MetaData&#45;&gt;\\Lib</title>
<path fill="none" stroke="black" d="M161.4,-88.0768C137.914,-106.066 101.719,-133.79 75.7282,-153.698"/>
<polygon fill="none" stroke="black" points="73.4877,-151.005 67.6772,-159.864 77.7443,-156.562 73.4877,-151.005"/>
</g>
<!-- \\MetaData&#45;&gt;\\Iterator -->
<g id="edge7" class="edge"><title>\\MetaData&#45;&gt;\\Iterator</title>
<path fill="none" stroke="black" stroke-dasharray="1,5" d="M155.785,-59.2256C135.034,-51.5728 106.916,-41.2029 84.0716,-32.7782"/>
<polygon fill="none" stroke="black" points="85.2344,-29.4766 74.6411,-29.3003 82.8123,-36.0443 85.2344,-29.4766"/>
</g>
</g>
</svg>
